<svg xmlns="http://www.w3.org/2000/svg" width="67.863" height="73.68" viewBox="0 0 67.863 73.68">
  <g id="bar" transform="translate(-5.79 -0.761)">
    <path id="Path_73863" data-name="Path 73863" d="M56.04,31.6a1.178,1.178,0,0,0-.921-1.926H42.62l.473-2.587L55.827,21.3l-.98-2.15L41.533,25.186a1.181,1.181,0,0,0-.673.9l-.673,3.544H27.263V29.51a10.632,10.632,0,1,0-4.56,8.612L35.532,54V65.527l-7.253,3.237a1.181,1.181,0,0,0,.484,2.256h15.9a1.181,1.181,0,0,0,.484-2.256L37.9,65.527V54.01ZM39.5,46.438l1.181-6.131h5.339l-9.309,11.4-9.238-11.4H38.2L37.151,46Zm13.148-14.4-4.784,5.906H41.049l1.1-5.906Zm-14,5.906H25.562l-4.725-5.906H39.75ZM16.632,37.72A8.163,8.163,0,1,1,24.9,29.557v.118H18.309a1.178,1.178,0,0,0-.921,1.926l3.827,4.725a8.269,8.269,0,0,1-4.583,1.394ZM34.351,68.658l2.363-1.075,2.363,1.075Z" transform="translate(0 3.221)" fill="#c5a572" stroke="#c5a572" stroke-width="0.4"/>
    <path id="Path_73864" data-name="Path 73864" d="M12,25h2.363v2.363H12Z" transform="translate(1.088 4.352)" fill="#c5a572" stroke="#c5a572" stroke-width="0.4"/>
    <path id="Path_73865" data-name="Path 73865" d="M12,30h2.363v2.363H12Z" transform="translate(1.088 5.259)" fill="#c5a572" stroke="#c5a572" stroke-width="0.4"/>
    <path id="Path_73866" data-name="Path 73866" d="M17,24h2.363v2.363H17Z" transform="translate(1.994 4.171)" fill="#c5a572" stroke="#c5a572" stroke-width="0.4"/>
    <path id="Path_73867" data-name="Path 73867" d="M44.993,11.255A3.544,3.544,0,1,0,48.537,14.8V2.183a1.181,1.181,0,0,0-1.689-1.075L37.4,5.561a1.181,1.181,0,0,0-.673,1.063v7.631A3.544,3.544,0,1,0,39.087,17.8V7.38l7.088-3.331v7.419a3.544,3.544,0,0,0-1.181-.213Zm-9.45,7.466a1.181,1.181,0,1,1,1.181-1.181A1.181,1.181,0,0,1,35.543,18.721Zm9.45-2.788a1.181,1.181,0,1,1,1.181-1.181A1.181,1.181,0,0,1,44.993,15.933Z" transform="translate(4.715 0)" fill="#c5a572" stroke="#c5a572" stroke-width="0.4"/>
    <path id="Path_73868" data-name="Path 73868" d="M57.658,2.559a1.181,1.181,0,0,0-.933,1.181V9.482a3.544,3.544,0,1,0,2.363,3.331V4.674l5.989-1.311L64.581,1ZM55.544,13.994a1.181,1.181,0,1,1,1.181-1.181A1.181,1.181,0,0,1,55.544,13.994Z" transform="translate(8.34 0.001)" fill="#c5a572" stroke="#c5a572" stroke-width="0.4"/>
  </g>
</svg>
