<svg xmlns="http://www.w3.org/2000/svg" width="56.125" height="57.018" viewBox="0 0 56.125 57.018">
  <g id="birthday-cake_1_" data-name="birthday-cake (1)" transform="translate(0.501 0.5)">
    <path id="Path_45496" data-name="Path 45496" d="M55.517,152.595v-8.269a4.6,4.6,0,0,0-4.594-4.594H47.248v-9.187a.919.919,0,0,0-.919-.919H40.817a.919.919,0,0,0-.919.919v9.187H31.63V128.708a.919.919,0,0,0-.919-.919H25.2a.919.919,0,0,0-.919.919v11.025H16.011v-9.187a.919.919,0,0,0-.919-.919H9.58a.919.919,0,0,0-.919.919v9.187H4.986a4.6,4.6,0,0,0-4.594,4.594v8.269a5.329,5.329,0,0,0,2.756,4.752v9.948H1.312a.919.919,0,0,0,0,1.837H54.6a.919.919,0,0,0,0-1.837H52.76V157.36A5.529,5.529,0,0,0,55.517,152.595ZM41.736,131.464h3.675v8.269H41.736Zm-15.618-1.837h3.675v10.106H26.117ZM10.5,131.464h3.675v8.269H10.5ZM2.23,144.326a2.756,2.756,0,0,1,2.756-2.756H50.923a2.756,2.756,0,0,1,2.756,2.756v8.269a3.7,3.7,0,0,1-2.2,3.372,3.758,3.758,0,0,1-4.075-.765,3.69,3.69,0,0,1-1.076-2.606V148.92a3.666,3.666,0,0,0-2.034-3.271l-.056-.031a3.506,3.506,0,0,0-.454-.177c-.092-.031-.175-.061-.266-.083a3.545,3.545,0,0,0-.356-.063c-.081-.012-.158-.036-.24-.042-.044,0-.086.006-.129,0s-.091-.013-.139-.013c-.1,0-.2.021-.3.029s-.209.013-.312.031a3.675,3.675,0,0,0-.469.12c-.083.026-.167.044-.248.075a3.521,3.521,0,0,0-.5.248c-.058.033-.119.057-.176.092a3.693,3.693,0,0,0-.6.48,3.651,3.651,0,0,0-1.078,2.6v1.837a3.675,3.675,0,0,1-7.35,0V148.92a3.666,3.666,0,0,0-2.034-3.271l-.056-.031a3.506,3.506,0,0,0-.454-.177c-.092-.031-.175-.061-.266-.083a3.537,3.537,0,0,0-.356-.063c-.081-.012-.158-.036-.24-.042-.044,0-.086.006-.129,0s-.091-.013-.139-.013c-.1,0-.2.021-.3.029s-.209.013-.312.031a3.681,3.681,0,0,0-.468.12c-.084.026-.168.044-.249.075a3.567,3.567,0,0,0-.493.247c-.059.033-.121.058-.178.092a3.657,3.657,0,0,0-1.673,3.081v5.512a3.675,3.675,0,1,1-7.35,0V148.92a3.666,3.666,0,0,0-2.034-3.271l-.056-.031a3.515,3.515,0,0,0-.454-.177c-.092-.031-.175-.061-.266-.083a3.546,3.546,0,0,0-.356-.063c-.081-.012-.158-.036-.24-.042s-.176-.009-.268-.009A3.675,3.675,0,0,0,9.58,148.92v3.675a3.681,3.681,0,0,1-1.069,2.6,3.792,3.792,0,0,1-3.433.974,3.66,3.66,0,0,1-.643-.2,3.781,3.781,0,0,1-1.129-.767,3.69,3.69,0,0,1-1.076-2.606Zm2.756,22.968v-9.264c.092.015.184.019.276.03l.07.008a5.532,5.532,0,0,0,2.38-.276,5.6,5.6,0,0,0,.681-.292c.047-.023.092-.048.141-.074a5.625,5.625,0,0,0,.518-.319c.053-.036.107-.07.16-.109a5.358,5.358,0,0,0,2.2-4.4V148.92a1.824,1.824,0,0,1,.539-1.3,1.865,1.865,0,0,1,.3-.243c.019-.012.04-.02.06-.031a1.816,1.816,0,0,1,.282-.141c.029-.011.058-.018.087-.027a1.755,1.755,0,0,1,.275-.069c.044-.007.092-.009.135-.014a2,2,0,0,1,.232-.008,2.366,2.366,0,0,1,.378.055c.023.005.044.014.066.02a2.007,2.007,0,0,1,1.319,1.91v5.357a5.512,5.512,0,1,0,11.025,0V148.92a1.832,1.832,0,0,1,.842-1.542c.016-.01.034-.017.05-.026a1.835,1.835,0,0,1,.293-.145c.026-.01.052-.016.078-.024a1.943,1.943,0,0,1,.276-.072c.044-.006.092-.009.132-.013a1.842,1.842,0,0,1,.233-.008,2.362,2.362,0,0,1,.378.055c.023.005.044.014.066.02a2.007,2.007,0,0,1,1.327,1.91v1.682a5.512,5.512,0,1,0,11.025,0V148.92a1.824,1.824,0,0,1,.539-1.3,1.867,1.867,0,0,1,.3-.243c.019-.012.04-.02.061-.032a1.889,1.889,0,0,1,.281-.14c.029-.011.059-.018.092-.026a1.712,1.712,0,0,1,.271-.069c.044-.007.092-.009.135-.014a2.015,2.015,0,0,1,.232-.008,2.362,2.362,0,0,1,.378.055c.023.005.044.014.066.02a2.007,2.007,0,0,1,1.318,1.91v3.52a5.518,5.518,0,0,0,1.615,3.906,5.614,5.614,0,0,0,.581.494c.06.043.121.082.184.123.154.105.31.2.473.292.065.035.129.069.194.1a5.62,5.62,0,0,0,.569.244c.039.014.076.031.116.044a5.588,5.588,0,0,0,1.562.294h.006a5.488,5.488,0,0,0,.768-.023l.092-.01c.092-.01.184-.014.276-.029v9.264Zm0,0" transform="translate(-0.392 -113.114)" fill="#c5a572" stroke="#c5a572" stroke-width="1"/>
    <path id="Path_45497" data-name="Path 45497" d="M204.992,12.838a4.6,4.6,0,0,0,4.594-4.594c0-2.205-3.2-6.945-3.837-7.872a.954.954,0,0,0-1.512,0c-.642.927-3.838,5.667-3.838,7.872A4.6,4.6,0,0,0,204.992,12.838Zm0-10.283c1.322,2.066,2.756,4.686,2.756,5.689a2.756,2.756,0,1,1-5.512,0C202.235,7.241,203.67,4.621,204.992,2.555Zm0,0" transform="translate(-177.429 0)" fill="#c5a572" stroke="#c5a572" stroke-width="1"/>
    <path id="Path_45498" data-name="Path 45498" d="M340.992,28.838a4.6,4.6,0,0,0,4.594-4.594c0-2.205-3.2-6.945-3.837-7.872a.954.954,0,0,0-1.512,0c-.642.927-3.838,5.667-3.838,7.872a4.6,4.6,0,0,0,4.594,4.594Zm0-10.283c1.322,2.066,2.756,4.686,2.756,5.689a2.756,2.756,0,1,1-5.512,0C338.235,23.241,339.67,20.621,340.992,18.555Zm0,0" transform="translate(-297.811 -14.162)" fill="#c5a572" stroke="#c5a572" stroke-width="1"/>
    <path id="Path_45499" data-name="Path 45499" d="M68.992,28.838a4.6,4.6,0,0,0,4.594-4.594c0-2.205-3.2-6.945-3.837-7.872a.954.954,0,0,0-1.512,0c-.641.927-3.838,5.667-3.838,7.872A4.6,4.6,0,0,0,68.992,28.838Zm0-10.283c1.322,2.066,2.756,4.686,2.756,5.689a2.756,2.756,0,0,1-5.512,0C66.235,23.241,67.67,20.621,68.992,18.555Zm0,0" transform="translate(-57.048 -14.162)" fill="#c5a572" stroke="#c5a572" stroke-width="1"/>
  </g>
</svg>
