<svg xmlns="http://www.w3.org/2000/svg" width="60.745" height="76.701" viewBox="0 0 60.745 76.701">
  <g id="cheers_1_" data-name="cheers (1)" transform="translate(-53.508 0.5)">
    <path id="Path_73869" data-name="Path 73869" d="M263.394,121.181a10.153,10.153,0,0,0,11.543,8.284l3.951,14.744-3.638.975a3.52,3.52,0,1,0,1.822,6.8l9.417-2.523a3.52,3.52,0,1,0-1.822-6.8l-3.638.975-3.951-14.744a10.151,10.151,0,0,0,5.854-12.946l-.444-1.216a1.109,1.109,0,0,0-2.083.761l.444,1.216a7.936,7.936,0,1,1-15.272,4.092l-1.019-5.82a4.906,4.906,0,0,1,1.424-.2,7.2,7.2,0,0,0,5.862-3.19,4.991,4.991,0,0,1,4.133-2.249,6.876,6.876,0,0,0,2.061-.32l.705,1.93a1.109,1.109,0,0,0,2.083-.761l-4.978-13.622a2.574,2.574,0,0,0-3.1-1.611l-11.035,2.957a2.574,2.574,0,0,0-1.879,2.945Zm-1.1-21.128L273.325,97.1a.368.368,0,0,1,.443.23l3.511,9.607a5,5,0,0,1-1.384.189,7.2,7.2,0,0,0-5.863,3.19,4.99,4.99,0,0,1-4.133,2.249,7.334,7.334,0,0,0-1.724.219l-2.154-12.306A.368.368,0,0,1,262.29,100.054Zm24.416,46.658a1.3,1.3,0,0,1-.791.607h0l-9.418,2.523a1.3,1.3,0,0,1-.674-2.516l9.418-2.523a1.311,1.311,0,0,1,.339-.045,1.3,1.3,0,0,1,1.126,1.954Z" transform="translate(-175.355 -80.839)" fill="#c5a572" stroke="#c5a572" stroke-width="1"/>
    <path id="Path_73870" data-name="Path 73870" d="M221.41,12.518a2.062,2.062,0,0,0,2.026-2.408L223.1,8.137l1.433-1.4a2.058,2.058,0,0,0-1.14-3.51l-1.981-.288-.886-1.8a2.058,2.058,0,0,0-3.691,0l-.886,1.8-1.981.288a2.058,2.058,0,0,0-1.141,3.51l1.433,1.4-.338,1.973a2.058,2.058,0,0,0,2.986,2.169l1.772-.931,1.772.931A2.058,2.058,0,0,0,221.41,12.518Zm-3.689-3.172-1.559.82.3-1.736a2.058,2.058,0,0,0-.592-1.822l-1.261-1.229,1.744-.253A2.058,2.058,0,0,0,217.9,4l.78-1.58.78,1.58a2.058,2.058,0,0,0,1.55,1.126l1.743.253-1.262,1.23a2.057,2.057,0,0,0-.592,1.821l.3,1.736-1.559-.82a2.057,2.057,0,0,0-1.916,0Z" transform="translate(-134.798)" fill="#c5a572" stroke="#c5a572" stroke-width="1"/>
    <path id="Path_73871" data-name="Path 73871" d="M177.149,45.27a1.109,1.109,0,0,0,1.809-1.284L175.4,38.977a1.109,1.109,0,0,0-1.809,1.284Z" transform="translate(-101.723 -32.816)" fill="#c5a572" stroke="#c5a572" stroke-width="1"/>
    <path id="Path_73872" data-name="Path 73872" d="M134.96,88.366l6.423,1.846A1.109,1.109,0,0,0,142,88.081l-6.423-1.846a1.109,1.109,0,0,0-.613,2.131Z" transform="translate(-68.292 -73.447)" fill="#c5a572" stroke="#c5a572" stroke-width="1"/>
    <path id="Path_73873" data-name="Path 73873" d="M304.638,51.485a1.1,1.1,0,0,0,.7-.25l5.423-4.431a1.109,1.109,0,0,0-1.4-1.717l-5.423,4.431a1.109,1.109,0,0,0,.7,1.968Z" transform="translate(-212.62 -38.206)" fill="#c5a572" stroke="#c5a572" stroke-width="1"/>
    <path id="Path_73874" data-name="Path 73874" d="M60.183,145.943a10.151,10.151,0,0,0,5.854,12.946l-3.951,14.744-3.638-.975a3.52,3.52,0,0,0-1.822,6.8l9.418,2.523a3.52,3.52,0,1,0,1.822-6.8l-3.638-.975,3.95-14.742a10.051,10.051,0,0,0,4.81-.421,1.109,1.109,0,1,0-.716-2.1A7.938,7.938,0,0,1,62.266,146.7l2.028-5.55a4.9,4.9,0,0,1,1.334.538,7.2,7.2,0,0,0,6.672.168,4.991,4.991,0,0,1,4.7.119,6.89,6.89,0,0,0,1.945.754L77.537,150.8a7.925,7.925,0,0,1-1.751,3.753,1.109,1.109,0,0,0,1.693,1.433,10.146,10.146,0,0,0,2.243-4.8l3.557-20.324a2.574,2.574,0,0,0-1.879-2.945l-11.035-2.957a2.573,2.573,0,0,0-3.1,1.611l-1.357,3.713a1.109,1.109,0,1,0,2.083.761l1.357-3.713a.368.368,0,0,1,.443-.23l11.035,2.957a.368.368,0,0,1,.269.421l-1.763,10.075a4.993,4.993,0,0,1-1.293-.529,7.2,7.2,0,0,0-6.672-.168,4.991,4.991,0,0,1-4.7-.119,7.32,7.32,0,0,0-1.6-.673l1.272-3.482a1.109,1.109,0,0,0-2.083-.761Zm7.109,31.381a1.3,1.3,0,1,1-.674,2.516L57.2,177.316a1.3,1.3,0,1,1,.674-2.516Z" transform="translate(0 -106.4)" fill="#c5a572" stroke="#c5a572" stroke-width="1"/>
  </g>
</svg>
