<svg id="Group_18583" data-name="Group 18583" xmlns="http://www.w3.org/2000/svg" width="162" height="33.126" viewBox="0 0 162 33.126">
  <g id="fork" transform="translate(64.5 0)">
    <path id="Path_73855" data-name="Path 73855" d="M77.277,19.374l1.957-.124h.01a4.609,4.609,0,0,0,3.435-2.005l1.547-2.27A9.161,9.161,0,0,0,85.7,8.252a2.067,2.067,0,0,0-1.939-1.719A9.158,9.158,0,0,0,77.26,8.8l-2.068,1.808a4.609,4.609,0,0,0-1.579,3.651s0,.007,0,.01l.112,1.958a2.755,2.755,0,0,1-.766,2.065L56.8,34.89a2.348,2.348,0,0,0-.629,1.743,2.7,2.7,0,0,0,2.736,2.624q.108,0,.215-.009a2.348,2.348,0,0,0,1.657-.836l14.54-18.029a2.756,2.756,0,0,1,1.959-1.01Zm-2.735.381L60,37.782a1.359,1.359,0,0,1-.962.47,1.706,1.706,0,0,1-1.873-1.66,1.357,1.357,0,0,1,.349-1.009l16.158-16.6a3.758,3.758,0,0,0,1.047-2.817l-.112-1.953a3.615,3.615,0,0,1,1.239-2.858l2.068-1.808a8.17,8.17,0,0,1,5.792-2.019,1.069,1.069,0,0,1,1,.889A8.166,8.166,0,0,1,83.4,14.411l-1.547,2.27a3.615,3.615,0,0,1-2.689,1.572l-1.952.124a3.76,3.76,0,0,0-2.672,1.378Zm0,0" transform="translate(-52.514 -6.131)" fill="#121d27"/>
    <path id="Path_73856" data-name="Path 73856" d="M303.231,296.9,292.4,287.03a.5.5,0,1,0-.673.738l10.832,9.866a1.359,1.359,0,0,1,.412.988,1.706,1.706,0,0,1-1.77,1.77,1.358,1.358,0,0,1-.986-.409l-9.655-10.6a.5.5,0,1,0-.738.673l9.657,10.6a2.348,2.348,0,0,0,1.7.732h.052a2.7,2.7,0,0,0,2.735-2.788,2.35,2.35,0,0,0-.735-1.7Zm0,0" transform="translate(-270.84 -268.265)" fill="#121d27"/>
    <path id="Path_73857" data-name="Path 73857" d="M6.026,13.648A4.624,4.624,0,0,0,9.05,14.87h.01l1.961.006a2.754,2.754,0,0,1,2.015.889l.864.948a.5.5,0,1,0,.738-.673l-.865-.95a3.758,3.758,0,0,0-2.749-1.214l-1.956-.006a3.628,3.628,0,0,1-2.344-.938L1.042,6.178A.172.172,0,0,1,1.3,5.945l5.173,5.173a1.313,1.313,0,0,0,1.855,0l.608-.608h0l1.079-1.079h0l.608-.608a1.313,1.313,0,0,0,0-1.855L5.446,1.794a.172.172,0,0,1,.233-.254l6.756,5.684a3.627,3.627,0,0,1,.938,2.343l.006,1.956a3.761,3.761,0,0,0,1.215,2.75l.926.843a.5.5,0,1,0,.673-.738l-.924-.842a2.756,2.756,0,0,1-.89-2.016l-.006-1.961s0-.007,0-.011a4.624,4.624,0,0,0-1.223-3.024.5.5,0,0,0-.046-.044L6.322.776A1.171,1.171,0,0,0,4.74,2.5L9.913,7.674a.313.313,0,0,1,0,.442l-.255.255L3.893,2.606a.5.5,0,0,0-.706.706L8.952,9.077l-.374.373L2.813,3.685a.5.5,0,1,0-.706.706l5.765,5.766-.255.255a.313.313,0,0,1-.442,0L2,5.239A1.171,1.171,0,0,0,.277,6.821l5.7,6.781a.465.465,0,0,0,.044.046Zm0,0" transform="translate(0 -0.499)" fill="#121d27"/>
  </g>
  <line id="Line_162" data-name="Line 162" x2="50" transform="translate(112 16.626)" fill="none" stroke="#121d27" stroke-width="1"/>
  <line id="Line_163" data-name="Line 163" x2="50" transform="translate(0 16.626)" fill="none" stroke="#121d27" stroke-width="1"/>
</svg>
