<svg xmlns="http://www.w3.org/2000/svg" width="52.512" height="63.152" viewBox="0 0 52.512 63.152">
  <g id="outline" transform="translate(-56.865 -15.998)">
    <path id="Path_45500" data-name="Path 45500" d="M200.418,29.891a1.053,1.053,0,0,0,.744-.308l6.452-6.452a4.179,4.179,0,0,0-5.909-5.909l-1.287,1.287-1.287-1.287a4.179,4.179,0,1,0-5.909,5.909l6.452,6.452A1.053,1.053,0,0,0,200.418,29.891ZM194.1,20.176a2.073,2.073,0,0,1,3.539-1.466l2.031,2.031a1.053,1.053,0,0,0,1.489,0l2.032-2.031a2.073,2.073,0,1,1,2.932,2.932h0l-5.708,5.708-5.708-5.708A2.059,2.059,0,0,1,194.1,20.176Z" transform="translate(-117.355)" fill="#c5a572"/>
    <path id="Path_45501" data-name="Path 45501" d="M60.907,148.869a4.834,4.834,0,0,0-3.78,3.439l-.221.773a1.053,1.053,0,0,0,.722,1.3l12.461,3.569a1.051,1.051,0,0,0,1.3-.722l.2-.7a4.876,4.876,0,0,0-1.493-5.015l-.107-.093a2.764,2.764,0,0,1-.847-2.843l4.137-14.444,4.062-2.253a12.925,12.925,0,0,0,5.779-6.66,12.925,12.925,0,0,0,5.779,6.66l4.062,2.253L97.1,148.582h0a2.765,2.765,0,0,1-.847,2.843l-.107.092a4.876,4.876,0,0,0-1.494,5.015l.2.7a1.051,1.051,0,0,0,1.3.722l12.461-3.569a1.053,1.053,0,0,0,.722-1.3l-.221-.773a4.834,4.834,0,0,0-3.78-3.44,2.74,2.74,0,0,1-2.143-1.95L99.033,132.4l2.253-4.062a12.931,12.931,0,0,0-.214-12.878L96.185,107.3a1.053,1.053,0,0,0-1.193-.471l-11.871,3.4-11.872-3.4a1.052,1.052,0,0,0-1.193.471l-4.887,8.161a12.931,12.931,0,0,0-.214,12.878l2.253,4.062L63.05,146.919a2.741,2.741,0,0,1-2.143,1.95Zm40.261-1.37a4.834,4.834,0,0,0,3.78,3.439,2.739,2.739,0,0,1,2.064,1.714L96.6,155.633a2.766,2.766,0,0,1,.918-2.523l.107-.092A4.877,4.877,0,0,0,99.123,148h0l-3.968-13.851,2.024-.58Zm-1.724-20.182-2.253,4.062-3.209.919-4.062-2.253a10.82,10.82,0,0,1-5.554-9.236l-.013-.706h2.579a42,42,0,0,0,13.076-2.085,10.825,10.825,0,0,1-.563,9.3Zm-4.65-18.243,4.223,7.052A39.889,39.889,0,0,1,86.932,118H84.315l-.108-5.891Zm-23.347,0,10.587,3.033L81.926,118H79.2a39.9,39.9,0,0,1-12-1.844ZM66.8,127.316a10.825,10.825,0,0,1-.57-9.265A41.993,41.993,0,0,0,79.2,120.1h2.692l-.013.706a10.82,10.82,0,0,1-5.554,9.236L72.259,132.3l-3.209-.919ZM65.073,147.5l3.989-13.927,2.024.58L67.119,148a4.876,4.876,0,0,0,1.493,5.015l.107.093a2.766,2.766,0,0,1,.918,2.523l-10.408-2.982a2.739,2.739,0,0,1,2.064-1.714,4.834,4.834,0,0,0,3.78-3.439Z" transform="translate(0 -78.844)" fill="#c5a572"/>
    <path id="Path_45502" data-name="Path 45502" d="M163.224,68.536a1.052,1.052,0,0,0,1.349-.63l.719-1.978a1.053,1.053,0,1,0-1.978-.719l-.719,1.978A1.053,1.053,0,0,0,163.224,68.536Z" transform="translate(-91.765 -42.135)" fill="#c5a572"/>
    <path id="Path_45503" data-name="Path 45503" d="M127.61,69.7a1.053,1.053,0,0,0,.763-1.776l-1.618-1.709a1.053,1.053,0,0,0-1.528,1.448l1.618,1.708A1.049,1.049,0,0,0,127.61,69.7Z" transform="translate(-59.118 -43.329)" fill="#c5a572"/>
    <path id="Path_45504" data-name="Path 45504" d="M111.28,102.872a1.053,1.053,0,0,0,1.044.932,1.067,1.067,0,0,0,.122-.007l2.338-.27a1.053,1.053,0,0,0-.242-2.091l-2.338.27A1.053,1.053,0,0,0,111.28,102.872Z" transform="translate(-47.251 -74.191)" fill="#c5a572"/>
    <path id="Path_45505" data-name="Path 45505" d="M329.043,68.6a1.052,1.052,0,0,0,.989-1.412l-.719-1.978a1.052,1.052,0,1,0-1.978.719l.719,1.978A1.053,1.053,0,0,0,329.043,68.6Z" transform="translate(-234.831 -42.135)" fill="#c5a572"/>
    <path id="Path_45506" data-name="Path 45506" d="M359.94,66.213l-1.618,1.708a1.052,1.052,0,1,0,1.528,1.447l1.618-1.709a1.053,1.053,0,0,0-1.528-1.448Z" transform="translate(-261.545 -43.323)" fill="#c5a572"/>
    <path id="Path_45507" data-name="Path 45507" d="M366.236,102.36a1.053,1.053,0,0,0,.925,1.166l2.338.27a1.065,1.065,0,0,0,.122.007,1.053,1.053,0,0,0,.119-2.1l-2.338-.27A1.053,1.053,0,0,0,366.236,102.36Z" transform="translate(-268.662 -74.191)" fill="#c5a572"/>
    <path id="Path_45508" data-name="Path 45508" d="M169.051,261.935a1.048,1.048,0,0,0,.54-.15l1.053-.632a1.053,1.053,0,0,0-1.083-1.805l-1.053.632a1.053,1.053,0,0,0,.543,1.955Z" transform="translate(-96.512 -211.204)" fill="#c5a572"/>
    <path id="Path_45509" data-name="Path 45509" d="M195.332,229.293a1.048,1.048,0,0,0,.541-.15,4.8,4.8,0,0,0,2.316-4.091,1.053,1.053,0,0,0-2.105,0,2.679,2.679,0,0,1-1.294,2.286,1.053,1.053,0,0,0,.542,1.955Z" transform="translate(-119.335 -180.637)" fill="#c5a572"/>
    <path id="Path_45510" data-name="Path 45510" d="M340.825,258.152a1.053,1.053,0,0,0,1.437-.389l.611-1.065a1.053,1.053,0,0,0-1.826-1.047l-.611,1.065A1.053,1.053,0,0,0,340.825,258.152Z" transform="translate(-246.142 -207.663)" fill="#c5a572"/>
    <path id="Path_45511" data-name="Path 45511" d="M356.074,214.413a1.053,1.053,0,0,0,1.437-.389,4.794,4.794,0,0,0,.026-4.7,1.053,1.053,0,1,0-1.838,1.027,2.679,2.679,0,0,1-.015,2.626A1.053,1.053,0,0,0,356.074,214.413Z" transform="translate(-259.385 -167.422)" fill="#c5a572"/>
  </g>
</svg>
