<svg id="restaurant_1_" data-name="restaurant (1)" xmlns="http://www.w3.org/2000/svg" width="58.971" height="58.971" viewBox="0 0 58.971 58.971">
  <g id="Group_17904" data-name="Group 17904" transform="translate(13.13 13.13)">
    <g id="Group_17903" data-name="Group 17903">
      <path id="Path_45512" data-name="Path 45512" d="M130.355,114a16.355,16.355,0,1,0,16.355,16.355A16.374,16.374,0,0,0,130.355,114Zm0,30.407a14.052,14.052,0,1,1,14.052-14.052A14.068,14.068,0,0,1,130.355,144.407Z" transform="translate(-114 -114)" fill="#c5a572"/>
    </g>
  </g>
  <g id="Group_17906" data-name="Group 17906" transform="translate(48.144 0)">
    <g id="Group_17905" data-name="Group 17905">
      <path id="Path_45513" data-name="Path 45513" d="M428.215.135A1.152,1.152,0,0,0,427.03.2a20.491,20.491,0,0,0-9.03,17V32.141a5.962,5.962,0,0,0,1.758,4.243l2.158,2.158V55.515a3.455,3.455,0,0,0,6.911,0V1.152A1.152,1.152,0,0,0,428.215.135Zm-1.692,55.381a1.152,1.152,0,1,1-2.3,0V38.066a1.152,1.152,0,0,0-.337-.814l-2.5-2.5a3.673,3.673,0,0,1-1.083-2.614V17.2a18.187,18.187,0,0,1,6.22-13.707Z" transform="translate(-418 0)" fill="#c5a572"/>
    </g>
  </g>
  <g id="Group_17908" data-name="Group 17908" transform="translate(18.898 19.651)">
    <g id="Group_17907" data-name="Group 17907">
      <path id="Path_45514" data-name="Path 45514" d="M172.02,171.317a1.152,1.152,0,0,0-1.512-.607,10.578,10.578,0,0,0-6.434,9.741,1.152,1.152,0,1,0,2.3,0,8.277,8.277,0,0,1,5.035-7.623A1.152,1.152,0,0,0,172.02,171.317Z" transform="translate(-164.075 -170.617)" fill="#c5a572"/>
    </g>
  </g>
  <g id="Group_17910" data-name="Group 17910" transform="translate(28.283 18.898)">
    <g id="Group_17909" data-name="Group 17909">
      <path id="Path_45515" data-name="Path 45515" d="M246.764,164.075h-.058a1.152,1.152,0,0,0,.008,2.3h.051a1.152,1.152,0,1,0,0-2.3Z" transform="translate(-245.562 -164.075)" fill="#c5a572"/>
    </g>
  </g>
  <g id="Group_17912" data-name="Group 17912" transform="translate(18.882 7.477)">
    <g id="Group_17911" data-name="Group 17911">
      <path id="Path_45516" data-name="Path 45516" d="M190.507,71.775a22.023,22.023,0,0,0-25.94-4.476,1.152,1.152,0,1,0,1.045,2.053,19.72,19.72,0,0,1,23.224,4.009,1.152,1.152,0,0,0,1.671-1.586Z" transform="translate(-163.937 -64.914)" fill="#c5a572"/>
    </g>
  </g>
  <g id="Group_17914" data-name="Group 17914" transform="translate(17.056 41.259)">
    <g id="Group_17913" data-name="Group 17913">
      <path id="Path_45517" data-name="Path 45517" d="M177.6,358.472a1.152,1.152,0,0,0-1.618.189,19.712,19.712,0,0,1-26.121,4.368,1.152,1.152,0,1,0-1.247,1.937,22.016,22.016,0,0,0,29.175-4.876A1.152,1.152,0,0,0,177.6,358.472Z" transform="translate(-148.081 -358.224)" fill="#c5a572"/>
    </g>
  </g>
  <g id="Group_17916" data-name="Group 17916" transform="translate(13.591 43.076)">
    <g id="Group_17915" data-name="Group 17915">
      <path id="Path_45518" data-name="Path 45518" d="M120.068,374.452l-.017-.019-.019-.022a1.152,1.152,0,1,0-1.762,1.484l.011.013h0l.038.046a1.152,1.152,0,1,0,1.748-1.5Z" transform="translate(-118 -374)" fill="#c5a572"/>
    </g>
  </g>
  <g id="Group_17918" data-name="Group 17918" transform="translate(0 0)">
    <g id="Group_17917" data-name="Group 17917">
      <path id="Path_45519" data-name="Path 45519" d="M14.282,0A1.152,1.152,0,0,0,13.13,1.152V13.591H11.056c0-.006,0-.013,0-.019V1.152a1.152,1.152,0,0,0-2.3,0v12.42c0,.006,0,.013,0,.019H6.679c0-.006,0-.013,0-.019V1.152a1.152,1.152,0,0,0-2.3,0v12.42c0,.006,0,.013,0,.019H2.3V1.152a1.152,1.152,0,1,0-2.3,0V15.2a7.093,7.093,0,0,0,4.262,6.477V55.515a3.455,3.455,0,0,0,6.911,0V21.681A7.093,7.093,0,0,0,15.434,15.2V1.152A1.152,1.152,0,0,0,14.282,0ZM9.7,19.767a1.152,1.152,0,0,0-.832,1.107V55.515a1.152,1.152,0,0,1-2.3,0V20.873a1.152,1.152,0,0,0-.832-1.107,4.775,4.775,0,0,1-3.377-3.872H13.078A4.775,4.775,0,0,1,9.7,19.767Z" fill="#c5a572"/>
    </g>
  </g>
</svg>
