<svg xmlns="http://www.w3.org/2000/svg" width="78.57" height="72.017" viewBox="0 0 78.57 72.017">
  <g id="wedding-rings" transform="translate(0 0)">
    <g id="Group_18600" data-name="Group 18600" transform="translate(0 15.235)">
      <g id="Group_18599" data-name="Group 18599">
        <path id="Path_73859" data-name="Path 73859" d="M57.05,129.182l4.676-4.676-3.332-3.877H50.368l-3.332,3.877,4.676,4.676a24.173,24.173,0,0,0-12.427,5.142,24.173,24.173,0,0,0-12.427-5.142l4.676-4.676L28.2,120.629H20.176l-3.332,3.877,4.676,4.676a24.188,24.188,0,1,0,17.765,42.939A24.188,24.188,0,1,0,57.05,129.182Zm-6.834-4.8,1.223-1.423h5.883l1.223,1.423-4.165,4.165Zm-30.193,0,1.223-1.423H27.13l1.223,1.423-4.165,4.165Zm4.165,50.691A21.85,21.85,0,1,1,42.581,165.03l-.087-.089c-.128-.13-.255-.261-.378-.395-.055-.059-.108-.12-.162-.18-.1-.113-.2-.227-.3-.343q-.085-.1-.168-.2-.142-.173-.28-.35c-.052-.066-.1-.132-.154-.2q-.151-.2-.295-.4c-.03-.042-.061-.084-.09-.126a19.04,19.04,0,0,0-.01-19.055l.009-.015-.4-.625a19.09,19.09,0,0,0-2.671-3.324q-.506-.5-1.049-.967l-.957-.818-.025.034a19.029,19.029,0,1,0,.024,30.484l.045.053c.083.1.168.2.252.3.065.077.129.155.195.231.09.1.182.206.273.308.063.07.125.141.188.211.1.11.2.218.306.326.057.06.113.121.17.18.125.129.253.256.381.382l.1.1A21.847,21.847,0,0,1,24.189,175.077Zm20.172-35.2a16.7,16.7,0,1,1,0,26.7,24.189,24.189,0,0,0,0-26.7Zm-5.076,20.479a16.7,16.7,0,0,1,0-14.261,16.7,16.7,0,0,1,0,14.261Zm-5.076-20.479a24.19,24.19,0,0,0,0,26.7,16.7,16.7,0,1,1,0-26.7Zm20.172,35.2a21.857,21.857,0,0,1-18.393-33.663l.088.09c.128.13.254.261.378.394.054.059.108.119.161.179q.153.17.3.344.084.1.166.2.143.174.282.352c.051.066.1.131.153.2.1.133.2.268.295.4.03.043.061.084.091.127a19.04,19.04,0,0,0,.01,19.055l-.01.015.4.625a19.1,19.1,0,0,0,3.721,4.292l.957.818.025-.034a19.029,19.029,0,1,0-.024-30.483l-.045-.053c-.083-.1-.167-.2-.251-.3-.065-.077-.13-.155-.2-.231-.089-.1-.18-.2-.271-.305-.064-.071-.127-.143-.191-.214-.1-.108-.2-.213-.3-.318-.059-.062-.117-.126-.177-.187-.12-.124-.242-.245-.364-.366-.04-.04-.079-.081-.12-.12a21.855,21.855,0,1,1,13.318,39.183Z" transform="translate(0 -120.629)" fill="#c5a572"/>
      </g>
    </g>
    <g id="Group_18602" data-name="Group 18602" transform="translate(38.118 0)">
      <g id="Group_18601" data-name="Group 18601">
        <rect id="Rectangle_10522" data-name="Rectangle 10522" width="2.334" height="7.265" fill="#c5a572"/>
      </g>
    </g>
    <g id="Group_18604" data-name="Group 18604" transform="translate(46.315 2.117)">
      <g id="Group_18603" data-name="Group 18603" transform="translate(0 0)">
        <rect id="Rectangle_10523" data-name="Rectangle 10523" width="7.265" height="2.334" transform="translate(0 6.594) rotate(-65.178)" fill="#c5a572"/>
      </g>
    </g>
    <g id="Group_18606" data-name="Group 18606" transform="translate(27.085 2.118)">
      <g id="Group_18605" data-name="Group 18605" transform="translate(0 0)">
        <rect id="Rectangle_10524" data-name="Rectangle 10524" width="2.334" height="7.265" transform="translate(0 0.98) rotate(-24.822)" fill="#c5a572"/>
      </g>
    </g>
  </g>
</svg>
