<svg xmlns="http://www.w3.org/2000/svg" width="94" height="94" viewBox="0 0 94 94">
  <g id="Group_17919" data-name="Group 17919" transform="translate(-1300 -2102)">
    <circle id="Ellipse_11562" data-name="Ellipse 11562" cx="47" cy="47" r="47" transform="translate(1300 2102)" fill="#2d3232"/>
    <g id="outline" transform="translate(1267.627 2105.33)">
      <path id="Path_45500" data-name="Path 45500" d="M199.377,28.173a.922.922,0,0,0,.652-.27l5.654-5.654a3.662,3.662,0,1,0-5.178-5.179L199.377,18.2l-1.128-1.128a3.662,3.662,0,1,0-5.179,5.178l5.654,5.654A.922.922,0,0,0,199.377,28.173Zm-5.534-8.513a1.817,1.817,0,0,1,3.1-1.285l1.78,1.78a.922.922,0,0,0,1.3,0l1.781-1.78a1.817,1.817,0,1,1,2.569,2.569h0l-5,5-5-5A1.8,1.8,0,0,1,193.843,19.659Z" transform="translate(-119.553)" fill="#c5a572"/>
      <path id="Path_45501" data-name="Path 45501" d="M60.407,143.664a4.236,4.236,0,0,0-3.313,3.014l-.194.677a.922.922,0,0,0,.633,1.141l10.92,3.128a.921.921,0,0,0,1.141-.633l.175-.611a4.273,4.273,0,0,0-1.309-4.395l-.094-.082a2.422,2.422,0,0,1-.742-2.492l3.626-12.657,3.56-1.974a11.326,11.326,0,0,0,5.064-5.836,11.326,11.326,0,0,0,5.064,5.836l3.56,1.974,3.626,12.657h0a2.423,2.423,0,0,1-.742,2.492l-.094.081a4.273,4.273,0,0,0-1.309,4.4l.175.611a.921.921,0,0,0,1.141.633l10.92-3.128a.922.922,0,0,0,.633-1.141l-.194-.677a4.236,4.236,0,0,0-3.313-3.014,2.4,2.4,0,0,1-1.878-1.709l-3.644-12.724,1.974-3.56a11.332,11.332,0,0,0-.187-11.286l-4.283-7.152a.922.922,0,0,0-1.045-.413l-10.4,2.98-10.4-2.979a.922.922,0,0,0-1.045.413l-4.283,7.152a11.332,11.332,0,0,0-.187,11.286l1.974,3.56-3.644,12.723a2.4,2.4,0,0,1-1.878,1.709Zm35.282-1.2A4.236,4.236,0,0,0,99,145.477a2.4,2.4,0,0,1,1.809,1.5l-9.121,2.613a2.424,2.424,0,0,1,.8-2.211l.094-.081a4.273,4.273,0,0,0,1.309-4.395h0l-3.477-12.138,1.773-.508Zm-1.51-17.686-1.974,3.56-2.812.806-3.56-1.975a9.482,9.482,0,0,1-4.867-8.094l-.012-.619h2.26a36.809,36.809,0,0,0,11.459-1.827,9.486,9.486,0,0,1-.493,8.149ZM90.1,108.79l3.7,6.18a34.956,34.956,0,0,1-10.591,1.641H80.92l-.095-5.163Zm-20.459,0,9.278,2.658-.095,5.163H76.434a34.968,34.968,0,0,1-10.513-1.616Zm-4.075,15.987a9.486,9.486,0,0,1-.5-8.119,36.8,36.8,0,0,0,11.365,1.8h2.359l-.012.619a9.482,9.482,0,0,1-4.867,8.094l-3.56,1.975-2.812-.806Zm-1.51,17.686,3.5-12.2,1.773.508L65.851,142.9a4.273,4.273,0,0,0,1.309,4.395l.094.082a2.424,2.424,0,0,1,.8,2.211l-9.121-2.613a2.4,2.4,0,0,1,1.809-1.5,4.236,4.236,0,0,0,3.313-3.014Z" transform="translate(0 -80.321)" fill="#c5a572"/>
      <path id="Path_45502" data-name="Path 45502" d="M163.139,68.039a.922.922,0,0,0,1.182-.552l.63-1.734a.922.922,0,0,0-1.734-.63l-.63,1.734A.922.922,0,0,0,163.139,68.039Z" transform="translate(-93.484 -42.924)" fill="#c5a572"/>
      <path id="Path_45503" data-name="Path 45503" d="M127.28,69.232a.922.922,0,0,0,.669-1.556l-1.418-1.5a.922.922,0,1,0-1.339,1.269l1.418,1.5A.919.919,0,0,0,127.28,69.232Z" transform="translate(-60.225 -44.14)" fill="#c5a572"/>
      <path id="Path_45504" data-name="Path 45504" d="M111.28,102.693a.922.922,0,0,0,.915.817.936.936,0,0,0,.107-.006l2.049-.237a.922.922,0,0,0-.212-1.833l-2.049.237A.922.922,0,0,0,111.28,102.693Z" transform="translate(-48.136 -75.581)" fill="#c5a572"/>
      <path id="Path_45505" data-name="Path 45505" d="M328.824,68.095a.922.922,0,0,0,.867-1.238l-.63-1.734a.922.922,0,1,0-1.734.63l.63,1.734A.922.922,0,0,0,328.824,68.095Z" transform="translate(-239.231 -42.925)" fill="#c5a572"/>
      <path id="Path_45506" data-name="Path 45506" d="M359.7,66.173l-1.418,1.5a.922.922,0,1,0,1.339,1.268l1.418-1.5a.922.922,0,1,0-1.339-1.269Z" transform="translate(-266.446 -44.135)" fill="#c5a572"/>
      <path id="Path_45507" data-name="Path 45507" d="M366.235,102.245a.922.922,0,0,0,.811,1.022l2.049.237a.936.936,0,0,0,.107.006.922.922,0,0,0,.1-1.839l-2.049-.237A.922.922,0,0,0,366.235,102.245Z" transform="translate(-273.696 -75.581)" fill="#c5a572"/>
      <path id="Path_45508" data-name="Path 45508" d="M168.921,261.6a.918.918,0,0,0,.474-.132l.922-.553a.922.922,0,1,0-.949-1.582l-.922.553a.922.922,0,0,0,.475,1.713Z" transform="translate(-98.32 -215.161)" fill="#c5a572"/>
      <path id="Path_45509" data-name="Path 45509" d="M195.2,228.639a.918.918,0,0,0,.474-.132,4.2,4.2,0,0,0,2.03-3.585.922.922,0,0,0-1.845,0,2.348,2.348,0,0,1-1.134,2,.922.922,0,0,0,.475,1.713Z" transform="translate(-121.571 -184.021)" fill="#c5a572"/>
      <path id="Path_45510" data-name="Path 45510" d="M340.76,257.777a.922.922,0,0,0,1.259-.341l.535-.933a.922.922,0,0,0-1.6-.918l-.535.933A.922.922,0,0,0,340.76,257.777Z" transform="translate(-250.754 -211.554)" fill="#c5a572"/>
      <path id="Path_45511" data-name="Path 45511" d="M356.009,213.716a.922.922,0,0,0,1.259-.341,4.2,4.2,0,0,0,.023-4.119.922.922,0,1,0-1.61.9,2.348,2.348,0,0,1-.013,2.3A.922.922,0,0,0,356.009,213.716Z" transform="translate(-264.245 -170.559)" fill="#c5a572"/>
    </g>
  </g>
</svg>
