<svg xmlns="http://www.w3.org/2000/svg" width="94" height="94" viewBox="0 0 94 94">
  <g id="Group_18729" data-name="Group 18729" transform="translate(-808 -2102)">
    <circle id="Ellipse_11560" data-name="Ellipse 11560" cx="47" cy="47" r="47" transform="translate(808 2102)" fill="#2d3232"/>
    <g id="birthday-cake_1_" data-name="birthday-cake (1)" transform="translate(830.628 2124.232)">
      <path id="Path_45496" data-name="Path 45496" d="M49.137,149.724v-7.312a4.066,4.066,0,0,0-4.062-4.062h-3.25v-8.124a.812.812,0,0,0-.812-.812H36.138a.812.812,0,0,0-.812.812v8.124H28.014V128.6a.812.812,0,0,0-.812-.812H22.328a.812.812,0,0,0-.812.812v9.749H14.2v-8.124a.812.812,0,0,0-.812-.812H8.517a.812.812,0,0,0-.812.812v8.124H4.455a4.067,4.067,0,0,0-4.062,4.062v7.312a4.712,4.712,0,0,0,2.437,4.2v8.8H1.205a.812.812,0,0,0,0,1.625H48.324a.812.812,0,0,0,0-1.625H46.7v-8.784A4.889,4.889,0,0,0,49.137,149.724ZM36.951,131.039H40.2v7.312h-3.25ZM23.14,129.414h3.25v8.936H23.14ZM9.329,131.039h3.25v7.312H9.329ZM2.018,142.412a2.437,2.437,0,0,1,2.437-2.437h40.62a2.437,2.437,0,0,1,2.437,2.437v7.312a3.269,3.269,0,0,1-1.944,2.981,3.323,3.323,0,0,1-3.6-.677,3.263,3.263,0,0,1-.952-2.3v-3.25a3.242,3.242,0,0,0-1.8-2.892l-.05-.027a3.1,3.1,0,0,0-.4-.157c-.081-.027-.155-.054-.236-.073a3.136,3.136,0,0,0-.315-.056c-.071-.01-.14-.032-.212-.037-.039,0-.076.006-.114,0s-.081-.012-.123-.012c-.09,0-.177.019-.266.026s-.184.012-.276.027a3.249,3.249,0,0,0-.415.106c-.073.023-.148.039-.219.067a3.113,3.113,0,0,0-.438.219c-.051.029-.106.05-.156.081a3.266,3.266,0,0,0-.526.425,3.228,3.228,0,0,0-.953,2.3V148.1a3.25,3.25,0,0,1-6.5,0v-1.625a3.242,3.242,0,0,0-1.8-2.892l-.05-.027a3.1,3.1,0,0,0-.4-.157c-.081-.027-.155-.054-.236-.073a3.128,3.128,0,0,0-.315-.056c-.071-.01-.14-.032-.212-.037-.039,0-.076.006-.114,0s-.081-.012-.123-.012c-.09,0-.177.019-.266.026s-.184.012-.276.027a3.254,3.254,0,0,0-.414.106c-.074.023-.149.039-.22.067a3.156,3.156,0,0,0-.436.219c-.052.029-.107.051-.157.081a3.234,3.234,0,0,0-1.48,2.724v4.874a3.25,3.25,0,1,1-6.5,0v-4.874a3.242,3.242,0,0,0-1.8-2.892l-.05-.027a3.108,3.108,0,0,0-.4-.157c-.081-.027-.155-.054-.236-.073a3.136,3.136,0,0,0-.315-.056c-.071-.01-.14-.032-.212-.037s-.156-.008-.237-.008a3.25,3.25,0,0,0-3.25,3.25v3.25a3.255,3.255,0,0,1-.945,2.3,3.353,3.353,0,0,1-3.036.861,3.237,3.237,0,0,1-.568-.176,3.343,3.343,0,0,1-1-.678,3.263,3.263,0,0,1-.952-2.3Zm2.437,20.31v-8.191c.081.013.163.017.244.027l.062.007a4.892,4.892,0,0,0,2.1-.244,4.949,4.949,0,0,0,.6-.258c.042-.02.081-.042.125-.065a4.977,4.977,0,0,0,.458-.282c.047-.032.095-.062.141-.1a4.738,4.738,0,0,0,1.95-3.895v-3.25a1.613,1.613,0,0,1,.477-1.148,1.649,1.649,0,0,1,.267-.215c.017-.01.036-.018.053-.027a1.607,1.607,0,0,1,.25-.125c.025-.01.051-.015.077-.023a1.553,1.553,0,0,1,.244-.061c.039-.006.081-.008.119-.012a1.769,1.769,0,0,1,.205-.007,2.09,2.09,0,0,1,.334.049c.02,0,.039.012.058.018a1.775,1.775,0,0,1,1.167,1.689v4.737a4.874,4.874,0,1,0,9.749,0v-4.874a1.62,1.62,0,0,1,.745-1.363c.014-.009.03-.015.044-.023a1.623,1.623,0,0,1,.259-.129c.023-.009.046-.014.069-.021a1.718,1.718,0,0,1,.244-.063c.039-.006.081-.008.117-.012a1.63,1.63,0,0,1,.206-.007,2.09,2.09,0,0,1,.334.049c.02,0,.039.012.058.018a1.775,1.775,0,0,1,1.173,1.689V148.1a4.874,4.874,0,1,0,9.749,0v-1.625a1.613,1.613,0,0,1,.477-1.148,1.65,1.65,0,0,1,.267-.215c.017-.01.036-.018.054-.029a1.669,1.669,0,0,1,.249-.123c.025-.01.052-.015.081-.023a1.515,1.515,0,0,1,.24-.061c.039-.006.081-.008.119-.012a1.782,1.782,0,0,1,.205-.007,2.09,2.09,0,0,1,.334.049c.02,0,.039.012.058.018a1.775,1.775,0,0,1,1.166,1.689v3.112a4.88,4.88,0,0,0,1.428,3.453,4.964,4.964,0,0,0,.514.437c.053.038.107.072.163.109.136.093.275.18.418.258.057.031.114.061.171.089a4.97,4.97,0,0,0,.5.216c.034.012.067.028.1.039a4.941,4.941,0,0,0,1.381.26h.006a4.852,4.852,0,0,0,.679-.02l.081-.009c.081-.009.163-.012.244-.026v8.191Zm0,0" transform="translate(-0.392 -114.812)" fill="#c5a572" stroke="#c5a572" stroke-width="1"/>
      <path id="Path_45497" data-name="Path 45497" d="M204.46,11.352a4.067,4.067,0,0,0,4.062-4.062c0-1.95-2.826-6.141-3.393-6.961a.843.843,0,0,0-1.337,0c-.567.82-3.394,5.011-3.394,6.961A4.067,4.067,0,0,0,204.46,11.352Zm0-9.093C205.629,4.087,206.9,6.4,206.9,7.29a2.437,2.437,0,1,1-4.874,0C202.023,6.4,203.291,4.087,204.46,2.259Zm0,0" transform="translate(-180.088 0)" fill="#c5a572" stroke="#c5a572" stroke-width="1"/>
      <path id="Path_45498" data-name="Path 45498" d="M340.46,27.352a4.067,4.067,0,0,0,4.062-4.062c0-1.95-2.826-6.141-3.393-6.961a.844.844,0,0,0-1.337,0c-.567.82-3.394,5.011-3.394,6.961a4.067,4.067,0,0,0,4.062,4.062Zm0-9.093c1.169,1.827,2.437,4.143,2.437,5.031a2.437,2.437,0,1,1-4.874,0C338.023,22.4,339.291,20.087,340.46,18.259Zm0,0" transform="translate(-302.277 -14.375)" fill="#c5a572" stroke="#c5a572" stroke-width="1"/>
      <path id="Path_45499" data-name="Path 45499" d="M68.46,27.352a4.067,4.067,0,0,0,4.062-4.062c0-1.95-2.826-6.141-3.393-6.961a.844.844,0,0,0-1.337,0c-.567.82-3.394,5.011-3.394,6.961A4.067,4.067,0,0,0,68.46,27.352Zm0-9.093C69.629,20.087,70.9,22.4,70.9,23.29a2.437,2.437,0,0,1-4.874,0C66.023,22.4,67.291,20.087,68.46,18.259Zm0,0" transform="translate(-57.898 -14.375)" fill="#c5a572" stroke="#c5a572" stroke-width="1"/>
    </g>
  </g>
</svg>
