<svg xmlns="http://www.w3.org/2000/svg" width="18.651" height="20.094" viewBox="0 0 18.651 20.094">
  <g id="cafe" transform="translate(-11.363 -9.709)">
    <path id="Path_45489" data-name="Path 45489" d="M17.843,36.7a.435.435,0,1,0-.812.308,6.658,6.658,0,0,0,2.32,3.032.435.435,0,1,0,.511-.7A5.794,5.794,0,0,1,17.843,36.7Z" transform="translate(-3.045 -14.934)" fill="#c5a572" stroke="#c5a572" stroke-width="0.5"/>
    <path id="Path_45490" data-name="Path 45490" d="M27.591,30.794a2.175,2.175,0,0,0,2.173-2.173v-.474a2.175,2.175,0,0,0-2.173-2.173h-.3V25.3a1.3,1.3,0,0,0-1.3-1.3H12.917a1.3,1.3,0,0,0-1.3,1.3v3.042A7.4,7.4,0,0,0,19,35.732h.907a7.394,7.394,0,0,0,6.961-4.938Zm0-3.95a1.3,1.3,0,0,1,1.3,1.3v.474a1.3,1.3,0,0,1-1.3,1.3h-.3V26.844Zm-7.685,8.019H19a6.525,6.525,0,0,1-6.518-6.518V25.3a.435.435,0,0,1,.435-.435H25.989a.435.435,0,0,1,.435.435v3.042a6.525,6.525,0,0,1-6.518,6.518Z" transform="translate(0 -7.917)" fill="#c5a572" stroke="#c5a572" stroke-width="0.5"/>
    <path id="Path_45491" data-name="Path 45491" d="M14.435,53a.435.435,0,0,0,0,.869H27.47a.435.435,0,0,0,0-.869Z" transform="translate(-1.35 -24.316)" fill="#c5a572" stroke="#c5a572" stroke-width="0.5"/>
    <path id="Path_45492" data-name="Path 45492" d="M20.274,10.127a.434.434,0,0,0-.614,0,1.665,1.665,0,0,0,0,2.352.8.8,0,0,1,0,1.124l-.217.217a.434.434,0,1,0,.614.614l.217-.217a1.665,1.665,0,0,0,0-2.352.8.8,0,0,1,0-1.124.435.435,0,0,0,0-.614Z" transform="translate(-4.275 0)" fill="#c5a572" stroke="#c5a572" stroke-width="0.5"/>
    <path id="Path_45493" data-name="Path 45493" d="M29.274,10.742a.434.434,0,1,0-.614-.614,1.665,1.665,0,0,0,0,2.352.8.8,0,0,1,0,1.124l-.217.217a.434.434,0,1,0,.614.614l.217-.217a1.665,1.665,0,0,0,0-2.352.8.8,0,0,1,0-1.124Z" transform="translate(-9.365 0)" fill="#c5a572" stroke="#c5a572" stroke-width="0.5"/>
    <path id="Path_45494" data-name="Path 45494" d="M38.274,10.127a.435.435,0,0,0-.614,0,1.665,1.665,0,0,0,0,2.352.8.8,0,0,1,0,1.124l-.217.217a.434.434,0,1,0,.614.614l.217-.217a1.665,1.665,0,0,0,0-2.352.8.8,0,0,1,0-1.124.434.434,0,0,0,0-.614Z" transform="translate(-14.454 0)" fill="#c5a572" stroke="#c5a572" stroke-width="0.5"/>
  </g>
</svg>
