<svg xmlns="http://www.w3.org/2000/svg" width="166.296" height="66.063" viewBox="0 0 166.296 66.063">
  <g id="Group_17889" data-name="Group 17889" transform="translate(-44.213 484.202)">
    <path id="Path_45462" data-name="Path 45462" d="M-15-557.564a43.157,43.157,0,0,0,6.988-5.217c-.042-.069-.082-.142-.128-.211a7.823,7.823,0,0,1-1.3-4.675,12.558,12.558,0,0,1,.667-3.6,23.951,23.951,0,0,1,2.31-5,9.571,9.571,0,0,1,1.486-1.91,4.4,4.4,0,0,1,1.258-.887,2.438,2.438,0,0,1,1.793-.119,2.527,2.527,0,0,1,1.18.833,4.351,4.351,0,0,1,.7,1.231,7.627,7.627,0,0,1,.476,2.2,13.529,13.529,0,0,1-1.738,7.8,10.833,10.833,0,0,1-1.525,2.09c-.658.7-1.333,1.387-2,2.08-.1.1-.189.2-.3.315a1.781,1.781,0,0,0,.189.185c.466.33.918.683,1.406.979.678.412,1.381.784,2.078,1.166s1.383.724,2.057,1.116c.481.28.94.6,1.391.925a4.684,4.684,0,0,1,1,1,3.354,3.354,0,0,1,.671,2.234,6.717,6.717,0,0,1-.908,3.056,10.128,10.128,0,0,1-1.946,2.392,18.534,18.534,0,0,1-3.311,2.4,37.1,37.1,0,0,1-5.561,2.595,74.305,74.305,0,0,1-8.139,2.513c-1.215.309-2.434.6-3.672.8q-1.361.217-2.732.375c-.83.1-1.664.172-2.5.231-1.419.1-2.841.119-4.264.12-1.339,0-2.678-.028-4.013-.12q-1.689-.116-3.373-.3c-1.093-.121-2.186-.264-3.272-.439a39.9,39.9,0,0,1-8.548-2.25,18.916,18.916,0,0,1-2.629-1.278,10.269,10.269,0,0,1-2.152-1.648,6.089,6.089,0,0,1-1.1-1.518,4.6,4.6,0,0,1-.44-2.642,6.331,6.331,0,0,1,1.257-3.1,9.517,9.517,0,0,1,2-1.95,16.627,16.627,0,0,1,3.233-1.826c.778-.343,1.576-.635,2.381-.906.117-.04.233-.084.369-.133-.056-.1-.1-.191-.15-.27a18.818,18.818,0,0,1-2.765-6.635,29.11,29.11,0,0,1-.6-4.764,37.577,37.577,0,0,1,.044-4.1c.087-1.5.264-3,.491-4.487a1.465,1.465,0,0,1,.059-.243,1.007,1.007,0,0,1,.9-.7.965.965,0,0,1,.931.589,4.1,4.1,0,0,0,.921,1.333,11.021,11.021,0,0,0,.94.828,10.765,10.765,0,0,0,2.078,1.241,20.162,20.162,0,0,0,3.907,1.335,35.19,35.19,0,0,0,3.99.7,58.971,58.971,0,0,0,8.811.293c1-.028,2.006-.085,3.007-.158a49.757,49.757,0,0,0,5.927-.742,21.979,21.979,0,0,0,4.329-1.245,10.135,10.135,0,0,0,1.875-1.006,5.569,5.569,0,0,0,1.119-1,3.673,3.673,0,0,0,.874-2.087c.016-.194.029-.389.044-.584a1.277,1.277,0,0,0-.242-.869,7.745,7.745,0,0,0-.631-.778,9.681,9.681,0,0,0-1.755-1.414,19.459,19.459,0,0,0-4.322-2.074,27.69,27.69,0,0,0-4.737-1.18c-.275-.044-.549-.1-.825-.133a1.55,1.55,0,0,0-.536-.022A.665.665,0,0,0-22-586.7c.054.5.11.993.167,1.508.244.06.489.092.734.13a23.522,23.522,0,0,1,4.931,1.251,8.88,8.88,0,0,1,1.507.719,7.635,7.635,0,0,1,.847.608,2.178,2.178,0,0,1,.746,2.256,3.819,3.819,0,0,1-1.022,1.931,5.916,5.916,0,0,1-1.625,1.163,12.072,12.072,0,0,1-2.594.92,26.8,26.8,0,0,1-3.709.6,67.734,67.734,0,0,1-8.232.208c-1.087-.024-2.174-.075-3.259-.146a36.026,36.026,0,0,1-5.671-.748,13.1,13.1,0,0,1-2.578-.84,6.464,6.464,0,0,1-1.556-.971,3.637,3.637,0,0,1-1.25-2.026,4.131,4.131,0,0,1,.139-2.144,5.5,5.5,0,0,1,.907-1.685,8.422,8.422,0,0,1,1.787-1.689,14.657,14.657,0,0,1,3.6-1.838,25.492,25.492,0,0,1,4.24-1.1,36.864,36.864,0,0,1,3.941-.468c1.475-.1,2.953-.124,4.432-.087.111,0,.223,0,.334,0a.389.389,0,0,0,.1-.037,1.206,1.206,0,0,0-.071-.224c-.206-.38-.419-.756-.629-1.133a12.6,12.6,0,0,1-1.153-2.637,5.851,5.851,0,0,1-.241-2.065,4.69,4.69,0,0,1,.422-1.608,7.9,7.9,0,0,1,.741-1.26c.152-.217.309-.43.461-.648a4.357,4.357,0,0,0,.7-3.228,10.087,10.087,0,0,0-.91-2.814c-.065-.139-.136-.275-.2-.415a1,1,0,0,1,.493-1.305.973.973,0,0,1,1.287.447c.269.534.506,1.086.728,1.642a9.19,9.19,0,0,1,.6,2.3,6.271,6.271,0,0,1-.838,4.14c-.167.273-.359.531-.538.8s-.367.526-.535.8a3.06,3.06,0,0,0-.357,2.3,5.535,5.535,0,0,0,.416,1.268c.232.491.472.98.736,1.454.394.706.795,1.409,1.117,2.151a.464.464,0,0,0,.446.3,28.442,28.442,0,0,1,2.976.432,27.246,27.246,0,0,1,7.31,2.433A16.658,16.658,0,0,1-9.6-584.488a10.167,10.167,0,0,1,1.477,1.355,5.913,5.913,0,0,1,.752,1.053,3.239,3.239,0,0,1,.426,1.723,8.135,8.135,0,0,1-.19,1.616,5.784,5.784,0,0,1-1.525,2.7,8.546,8.546,0,0,1-1.746,1.355,15.416,15.416,0,0,1-3.447,1.481,28.153,28.153,0,0,1-4.2.937c-.979.143-1.959.281-2.942.386-.887.094-1.778.142-2.668.207-2.338.171-4.681.193-7.023.145-1.171-.024-2.339-.1-3.505-.215-.958-.091-1.912-.208-2.86-.366a25.014,25.014,0,0,1-6.554-1.924,13.18,13.18,0,0,1-3.128-1.993,1.459,1.459,0,0,0-.17-.119c-.009-.006-.026,0-.058,0-.074.082-.044.2-.062.3s-.035.221-.043.332c-.106,1.363-.2,2.726-.168,4.094a26.771,26.771,0,0,0,.73,6.005,16.832,16.832,0,0,0,2.114,5.025,10.624,10.624,0,0,0,.809,1.122,3.17,3.17,0,0,0,.338-.047c1.312-.328,2.638-.584,3.974-.788.964-.147,1.933-.263,2.9-.37.831-.091,1.664-.172,2.5-.217a44.332,44.332,0,0,1,5.1-.059c.6.037,1.2.065,1.8.1,1.016.062,2.025.183,3.033.324a36.166,36.166,0,0,1,3.651.695,22.41,22.41,0,0,1,3.492,1.137,12.123,12.123,0,0,1,1.526.776C-15.182-557.659-15.095-557.616-15-557.564Zm8.353-3.679c-.364.313-.72.624-1.082.928s-.728.608-1.1.9-.745.586-1.123.872-.76.567-1.146.841-.78.539-1.169.809-.8.5-1.19.8c.046.1.082.188.124.273a2.752,2.752,0,0,1,.254,1.625,4.917,4.917,0,0,1-.93,2.256,7.564,7.564,0,0,1-1.656,1.644,12.118,12.118,0,0,1-3.1,1.627,20.18,20.18,0,0,1-5.969,1.145,46.469,46.469,0,0,1-7.474-.257,35.9,35.9,0,0,1-3.956-.655,21.313,21.313,0,0,1-3.084-.9,2.547,2.547,0,0,1-.38-.172.966.966,0,0,1-.439-1.117.98.98,0,0,1,1.291-.657c.264.089.522.2.786.282a30.12,30.12,0,0,0,6.088,1.243c.775.086,1.554.145,2.333.194a37.06,37.06,0,0,0,5.515-.008,19.283,19.283,0,0,0,3.493-.615,12.144,12.144,0,0,0,3.039-1.265,6.965,6.965,0,0,0,1.507-1.186,3.98,3.98,0,0,0,.774-1.134,2.5,2.5,0,0,0,.2-.766.5.5,0,0,0-.188-.5.272.272,0,0,0-.063.008c-.334.173-.666.349-1,.521a30.066,30.066,0,0,1-7.5,2.774,19.507,19.507,0,0,1-3.393.456,31.377,31.377,0,0,1-5.257-.233,25.165,25.165,0,0,1-4.322-.936,17.385,17.385,0,0,1-7.32-4.368c-.057-.058-.125-.106-.184-.156a1.7,1.7,0,0,0-.179.032,26.178,26.178,0,0,0-3.564,1.313A13.676,13.676,0,0,0-50.6-554.1a7.226,7.226,0,0,0-1.449,1.44,4.737,4.737,0,0,0-.756,1.527,2.908,2.908,0,0,0,.622,2.887,7.711,7.711,0,0,0,.648.651,8.817,8.817,0,0,0,1.47,1.03,18.084,18.084,0,0,0,2.923,1.335,44.564,44.564,0,0,0,9.639,2.171c.884.112,1.773.187,2.661.275,1.277.127,2.558.2,3.84.221s2.565.014,3.848,0c.7-.009,1.394-.043,2.088-.1,1.013-.083,2.025-.189,3.036-.3a31.592,31.592,0,0,0,3.3-.548c1.7-.372,3.384-.817,5.055-1.3a57.31,57.31,0,0,0,6.851-2.416A27.957,27.957,0,0,0-2.4-549.585a13.761,13.761,0,0,0,2.2-1.789,7.646,7.646,0,0,0,1.2-1.55,4.971,4.971,0,0,0,.663-2.051,1.535,1.535,0,0,0-.421-1.265,5.049,5.049,0,0,0-.752-.659c-.423-.293-.865-.562-1.315-.812-.718-.4-1.451-.773-2.177-1.159a19.147,19.147,0,0,1-3.527-2.307A.981.981,0,0,0-6.647-561.244ZM-22.22-583.173c-.043.083-.093.166-.131.253a6.524,6.524,0,0,1-1.052,1.651,9.481,9.481,0,0,1-2.379,1.958,5.591,5.591,0,0,1-1.185.516,7.518,7.518,0,0,1-4.366.014,6.446,6.446,0,0,1-2.2-1.074,3.51,3.51,0,0,1-.966-1.086,2.159,2.159,0,0,1,.346-2.622,3.635,3.635,0,0,1,1.017-.724,7.006,7.006,0,0,1,1.45-.526,21.1,21.1,0,0,1,4.343-.572c1.03-.039,2.063,0,3.094,0,.12,0,.252.049.376-.08-.009-.161-.009-.342-.031-.52a5,5,0,0,0-.109-.575,1.031,1.031,0,0,0-.2-.52c-.488-.025-.988-.064-1.488-.074a46.452,46.452,0,0,0-4.763.135,32.627,32.627,0,0,0-4.216.6,19.225,19.225,0,0,0-3.931,1.258,10.475,10.475,0,0,0-2.353,1.426,5.711,5.711,0,0,0-1.136,1.22,3.325,3.325,0,0,0-.5,1.14,1.69,1.69,0,0,0,.445,1.619,3.281,3.281,0,0,0,.725.561,6.964,6.964,0,0,0,1.3.576,18.465,18.465,0,0,0,3.3.739c1.532.225,3.075.341,4.62.418,2.048.1,4.1.125,6.147.089q1.212-.021,2.423-.1c.987-.065,1.972-.157,2.951-.307a17.926,17.926,0,0,0,2.971-.672,6.867,6.867,0,0,0,1.591-.73,2.948,2.948,0,0,0,.8-.725,1.676,1.676,0,0,0,.323-.761.33.33,0,0,0-.122-.335,6.124,6.124,0,0,0-.51-.363,8.6,8.6,0,0,0-1.518-.693,21.928,21.928,0,0,0-4.091-1.007A4.135,4.135,0,0,0-22.22-583.173Zm5.109,26.784c-.03-.039-.041-.067-.062-.078-.111-.057-.223-.114-.338-.164a19.117,19.117,0,0,0-2.687-.916,38.4,38.4,0,0,0-7.547-1.163c-1.113-.07-2.228-.118-3.345-.087-.739.02-1.478.037-2.215.079-.863.049-1.726.1-2.585.192q-1.558.164-3.109.4c-.908.14-1.809.329-2.712.5a1.065,1.065,0,0,0-.212.1c.128.118.225.214.33.3a15.176,15.176,0,0,0,3.973,2.364,21.623,21.623,0,0,0,5.658,1.414,30.7,30.7,0,0,0,4.217.2,17.622,17.622,0,0,0,3.276-.382,27.987,27.987,0,0,0,7.123-2.6A2.329,2.329,0,0,0-17.111-556.389Zm10.617-7.756c.093-.079.15-.12.2-.169.707-.732,1.419-1.459,2.115-2.2a7.747,7.747,0,0,0,1.032-1.417,11.772,11.772,0,0,0,1.627-6.394,6.594,6.594,0,0,0-.2-1.489,5.877,5.877,0,0,0-.254-.751,2.186,2.186,0,0,0-.272-.468A.5.5,0,0,0-3-577.205a2.082,2.082,0,0,0-.441.313,5.837,5.837,0,0,0-.627.671,12.448,12.448,0,0,0-.782,1.134,21.973,21.973,0,0,0-2.033,4.436,9.734,9.734,0,0,0-.543,3.782,5.664,5.664,0,0,0,.748,2.456C-6.633-564.331-6.572-564.258-6.493-564.145Zm-17.9-19.23c-.157-.014-.277-.031-.4-.034a31.948,31.948,0,0,0-3.425.072,22.093,22.093,0,0,0-2.564.354,5.285,5.285,0,0,0-1.611.557c-.5.288-.516.459-.107.846a3.34,3.34,0,0,0,.946.606,5.89,5.89,0,0,0,2.724.516,4.412,4.412,0,0,0,2-.549,7.035,7.035,0,0,0,1.986-1.644c.132-.161.247-.337.363-.51A1.315,1.315,0,0,0-24.391-583.375Z" transform="translate(99.146 122.408)" fill="#c5a572"/>
    <g id="Group_17890" data-name="Group 17890" transform="translate(118.832 -470.048)">
      <path id="Path_45463" data-name="Path 45463" d="M638.341,1028.6a1.645,1.645,0,0,1-1.022-1.613,3.768,3.768,0,0,1,.713-2.581,7.962,7.962,0,0,1,1.689-1.8,15.2,15.2,0,0,1,5.409-2.689,9.369,9.369,0,0,1,.983-.19,2.73,2.73,0,0,1,1.382.145.847.847,0,0,1,.627,1.035,3.022,3.022,0,0,1-.2.772,3.65,3.65,0,0,1-2.309,2.08,2.622,2.622,0,0,1-.725.1c-.3.008-.444-.125-.478-.439a6.239,6.239,0,0,1,0-.641,1.1,1.1,0,0,0-.332.04c-.279.139-.553.289-.818.454a17.378,17.378,0,0,0-2.731,2.143,4.186,4.186,0,0,0-.549.668,1.019,1.019,0,0,0-.082.364,1.031,1.031,0,0,0,.815-.007c.461-.166.914-.353,1.379-.507a6.833,6.833,0,0,1,.9-.219.622.622,0,0,1,.64.274c.04.053.083.1.122.159.409.571.383.832-.133,1.327a4.166,4.166,0,0,1-1.11.734,17.784,17.784,0,0,0-3.951,2.721,2.805,2.805,0,0,0-.406.443.955.955,0,0,0,.272,1.44,1.988,1.988,0,0,0,.952.278,5.411,5.411,0,0,0,2.915-.573,12.342,12.342,0,0,0,1.362-.842,32.412,32.412,0,0,0,2.989-2.469,7.56,7.56,0,0,1,.729-.584.327.327,0,0,1,.535.173,1.036,1.036,0,0,1,.061.191,2.762,2.762,0,0,1,.047.33,2.516,2.516,0,0,1-1.1,2.686,18.223,18.223,0,0,1-3.258,2.328,9.629,9.629,0,0,1-5.058,1.265,5.631,5.631,0,0,1-1.512-.248,3.28,3.28,0,0,1-1.7-1.129,2.253,2.253,0,0,0-.2-.2c-.173.137-.325.261-.481.378-.5.374-.989.761-1.5,1.115a4.443,4.443,0,0,1-2.263.737,2.76,2.76,0,0,1-2.556-1.3,2.342,2.342,0,0,1-.329-1.67,8.606,8.606,0,0,1,.548-2.13,20.666,20.666,0,0,1,1.579-3.241c.6-.989,1.217-1.973,1.815-2.966a2.518,2.518,0,0,0,.416-.883c-.11-.136-.217-.085-.305-.022a6.624,6.624,0,0,0-.69.526c-.552.519-1.1,1.041-1.628,1.586a73.866,73.866,0,0,0-7.768,9.355,8.1,8.1,0,0,1-.634.774.771.771,0,0,1-.722.263,7.125,7.125,0,0,1-.719-.139.769.769,0,0,0-.633.1c-.381.23-.773.445-1.174.637a5.332,5.332,0,0,1-1.654.5,3.231,3.231,0,0,1-2.86-.972c-.109-.111-.2-.234-.281-.322-.285-.021-.413.158-.571.265a10.123,10.123,0,0,1-3.579,1.593,5.4,5.4,0,0,1-1.728.1,2.5,2.5,0,0,1-2.079-1.478,4.317,4.317,0,0,1-.4-1.813,16.026,16.026,0,0,1,.346-3.519,37.4,37.4,0,0,1,2.5-7.533,44.9,44.9,0,0,1,6.782-10.849,17.1,17.1,0,0,1,2.193-2.247,6.8,6.8,0,0,1,1.5-.993,2.655,2.655,0,0,1,1.694-.211,1.647,1.647,0,0,1,1.394,1.641,2.988,2.988,0,0,1-.2,1.179c-.231.626-.465,1.255-.751,1.857a40.928,40.928,0,0,1-2.963,5.155,148.265,148.265,0,0,1-8.989,12.06,2.455,2.455,0,0,0-.631,1.363c-.037.4-.109.793-.137,1.192a1.26,1.26,0,0,0,.631,1.178,1.893,1.893,0,0,0,1.4.3,3.605,3.605,0,0,0,1.359-.537A10.209,10.209,0,0,0,613.4,1033a1.837,1.837,0,0,0,.241-.4c.8-1.67,1.7-3.283,2.634-4.882a5.935,5.935,0,0,0,.583-1.162l-.762-.95a3.544,3.544,0,0,1,.256-.472,13.236,13.236,0,0,1,3.033-2.9,2.891,2.891,0,0,1,.528-.286,1.341,1.341,0,0,1,1.8.978.937.937,0,0,1-.057.453,5.763,5.763,0,0,1-.308.667q-2.073,4.047-4.332,7.993a12.092,12.092,0,0,0-.616,1.185,4.123,4.123,0,0,0-.284.956.524.524,0,0,0,.549.67,3.568,3.568,0,0,0,.919-.12,3.492,3.492,0,0,0,1.119-.586,11.078,11.078,0,0,0,2.149-2.094,3.023,3.023,0,0,0,.283-.453q2.178-3.876,4.356-7.752a13.142,13.142,0,0,1,.927-1.468,3.373,3.373,0,0,1,2.768-1.233.3.3,0,0,1,.323.279,1.178,1.178,0,0,1-.02.459,6.032,6.032,0,0,1-.367,1c-.3.595-.645,1.17-.977,1.75-.166.29-.347.571-.524.861.156.1.2-.036.266-.1.583-.614,1.152-1.243,1.746-1.846a13.8,13.8,0,0,1,2.093-1.766,6.292,6.292,0,0,1,2.564-1.085,2.043,2.043,0,0,1,.924.066,1.244,1.244,0,0,1,.944,1.475,3.688,3.688,0,0,1-.321,1.013c-.338.677-.7,1.343-1.095,1.99-.648,1.066-1.336,2.109-1.994,3.17a23.2,23.2,0,0,0-1.65,3.056,6.741,6.741,0,0,0-.364,1.142c-.176.764.34,1.028.869,1.014a1.8,1.8,0,0,0,.834-.208,8.24,8.24,0,0,0,.85-.528,11.814,11.814,0,0,0,2.27-2.163,7.215,7.215,0,0,1,2.157-1.767C637.878,1028.86,638.05,1028.763,638.341,1028.6Zm-29.488-.916.117.067c.176-.225.358-.446.527-.676q3.628-4.926,6.87-10.114c.39-.622.756-1.261,1.111-1.9.247-.448.469-.911.676-1.379a6,6,0,0,0,.261-.826c.042-.152.064-.325-.107-.415s-.3.018-.419.121a5.733,5.733,0,0,0-.575.557c-.4.476-.8.954-1.177,1.454-1.451,1.949-2.807,3.962-4.1,6.019a30.607,30.607,0,0,0-3.063,6.659C608.927,1027.391,608.893,1027.538,608.853,1027.684Z" transform="translate(-556.463 -1009.602)" fill="#c5a572"/>
      <path id="Path_45464" data-name="Path 45464" d="M-48.668,1068.8l1.173-.189a2.7,2.7,0,0,1,2.6,1.044,1.8,1.8,0,0,1,.43,1.168,6.723,6.723,0,0,1-.223,1.719,19.355,19.355,0,0,1-1.317,3.71,41.707,41.707,0,0,1-10.316,13.835,24.853,24.853,0,0,1-3.1,2.324,15.023,15.023,0,0,1-4.638,2.006,7.839,7.839,0,0,1-2.451.236,3.028,3.028,0,0,1-1.029-.268,5.138,5.138,0,0,1-3.16-4.309,11.158,11.158,0,0,1,.48-4.552,24.978,24.978,0,0,1,2.728-5.935A32.607,32.607,0,0,1-56.906,1068.9a18.046,18.046,0,0,1,5.113-2.259,9.864,9.864,0,0,1,2.3-.362,2.511,2.511,0,0,1,1.041.206.768.768,0,0,1,.42,1.236c-.073.137-.171.261-.251.395C-48.39,1068.307-48.5,1068.5-48.668,1068.8Zm-1.534.594a2.393,2.393,0,0,0-.947.161,14.9,14.9,0,0,0-3.676,1.732,29.407,29.407,0,0,0-9.485,9.634,25.508,25.508,0,0,0-2.457,5.036,8.977,8.977,0,0,0-.54,2.473,3.708,3.708,0,0,0,.442,2.128,1.465,1.465,0,0,0,1.108.774,3.732,3.732,0,0,0,.8.031,6.423,6.423,0,0,0,2.395-.791,18.166,18.166,0,0,0,3.964-2.822,46.467,46.467,0,0,0,3.411-3.489,40.23,40.23,0,0,0,5.691-8.227c.4-.771.739-1.572,1.073-2.373a5.834,5.834,0,0,0,.26-1.032.9.9,0,0,0-.017-.33.214.214,0,0,0-.238-.189,1.768,1.768,0,0,0-.576.143,9.279,9.279,0,0,0-1.146.68,15.693,15.693,0,0,0-3,2.842c-.154.19-.3.387-.44.589a1.573,1.573,0,0,0-.381,1.174.363.363,0,0,1-.02.131.221.221,0,0,1-.264.144.874.874,0,0,1-.24-.111,5.394,5.394,0,0,1-1.209-1.238,1.505,1.505,0,0,1-.219-1.275,3.426,3.426,0,0,1,.537-1.216,17.282,17.282,0,0,1,1.207-1.513,14.354,14.354,0,0,1,3.393-2.69C-50.613,1069.674-50.455,1069.56-50.2,1069.4Z" transform="translate(70.764 -1062.212)" fill="#c5a572"/>
      <path id="Path_45465" data-name="Path 45465" d="M207.324,1209.349c.148-.157.294-.317.445-.471.671-.685,1.33-1.381,2.018-2.047a10.268,10.268,0,0,1,1.8-1.388,5.565,5.565,0,0,1,1.771-.764,4.09,4.09,0,0,1,1.058-.09,1.29,1.29,0,0,1,1.254,1.6,3.617,3.617,0,0,1-.312.947c-.307.618-.634,1.229-.993,1.817-.673,1.1-1.39,2.18-2.061,3.285-.474.78-.926,1.576-1.343,2.388a15.26,15.26,0,0,0-.658,1.6,1.544,1.544,0,0,0-.082.526.654.654,0,0,0,.579.7,1.547,1.547,0,0,0,1.043-.12,6.743,6.743,0,0,0,.918-.543,11.888,11.888,0,0,0,2.323-2.2,7.035,7.035,0,0,1,2.1-1.728c.192-.105.382-.215.616-.348a2.812,2.812,0,0,0-.283-.223,1.292,1.292,0,0,1-.621-.98,3.869,3.869,0,0,1,.668-3.046,8.566,8.566,0,0,1,1.747-1.833,15.687,15.687,0,0,1,5.1-2.58,6.964,6.964,0,0,1,1.512-.258,2.557,2.557,0,0,1,1.239.217.774.774,0,0,1,.5.859,3.339,3.339,0,0,1-.223.9,3.607,3.607,0,0,1-2.643,2.147c-.656.14-.866-.04-.878-.7,0-.126,0-.253,0-.437a3.193,3.193,0,0,0-.469.181,13.73,13.73,0,0,0-1.358.85c-.724.555-1.421,1.148-2.111,1.746a1.514,1.514,0,0,0-.587.915c.121.044.248.138.351.118a9.477,9.477,0,0,0,1.093-.289c.38-.125.747-.291,1.125-.423a3.226,3.226,0,0,1,.522-.115.638.638,0,0,1,.6.217c.03.033.061.065.089.1.635.816.449,1.039-.106,1.52a4.7,4.7,0,0,1-1,.65,18.95,18.95,0,0,0-3.953,2.72,2.927,2.927,0,0,0-.449.494.927.927,0,0,0,.206,1.351,1.925,1.925,0,0,0,.668.281,4.783,4.783,0,0,0,2.566-.213,6.114,6.114,0,0,0,1.882-1c.862-.67,1.707-1.362,2.552-2.053.345-.282.67-.588,1.006-.882a2.4,2.4,0,0,1,.262-.207c.322-.209.579-.134.661.227a3.878,3.878,0,0,1-.083,2.046,1.127,1.127,0,0,1-.3.437,14.693,14.693,0,0,1-6.419,3.946,8.225,8.225,0,0,1-3.581.139,3.361,3.361,0,0,1-2.2-1.287,1.068,1.068,0,0,0-.18-.146l-.416.308c-.536.4-1.056.821-1.61,1.193a4.347,4.347,0,0,1-2.339.7,2.758,2.758,0,0,1-2.393-1.231,2.28,2.28,0,0,1-.372-1.659,7.945,7.945,0,0,1,.438-1.883,19.361,19.361,0,0,1,1.494-3.207c.559-.938,1.14-1.863,1.7-2.8.23-.381.446-.772.657-1.164a1.785,1.785,0,0,0,.089-.38,1.968,1.968,0,0,0-.36.138,5.763,5.763,0,0,0-.584.446c-.349.312-.7.628-1.023.961a74.764,74.764,0,0,0-8.271,9.8c-.2.293-.421.576-.644.853a.985.985,0,0,1-1.122.39c-.383-.114-.773-.209-1.153-.333a.364.364,0,0,1-.246-.427,1.731,1.731,0,0,1,.111-.451,9.883,9.883,0,0,1,.436-.9q2.842-5.075,5.693-10.145c.295-.524.607-1.039.917-1.555a3.115,3.115,0,0,1,2.15-1.453,6.14,6.14,0,0,1,.725-.117.393.393,0,0,1,.474.426,1.139,1.139,0,0,1-.056.393,7.156,7.156,0,0,1-.383.995c-.33.631-.7,1.244-1.048,1.864-.108.19-.22.379-.331.568Z" transform="translate(-179.208 -1189.668)" fill="#c5a572"/>
      <path id="Path_45466" data-name="Path 45466" d="M629.641,1549.939a2.093,2.093,0,0,1,.722.317c.281.134.558.276.845.394a1.744,1.744,0,0,0,.988.062.91.91,0,0,0,.8-.7.923.923,0,0,0-.4-.99,2.882,2.882,0,0,0-.518-.3c-.321-.153-.655-.279-.973-.438a6.854,6.854,0,0,1-.927-.525,1.912,1.912,0,0,1-.7-2.142,1.78,1.78,0,0,1,.826-1.011,2.648,2.648,0,0,1,1.333-.385,8.335,8.335,0,0,1,1.457.134,1.6,1.6,0,0,1,.649.321.77.77,0,0,1,.223.961.284.284,0,0,1-.383.162c-.266-.111-.529-.233-.786-.365a2.24,2.24,0,0,0-1.294-.234.862.862,0,0,0-.463,1.535,2.942,2.942,0,0,0,.512.308c.341.164.693.3,1.034.465a7.641,7.641,0,0,1,.824.437,1.918,1.918,0,0,1,.929,1.934,1.967,1.967,0,0,1-1.272,1.663,1.693,1.693,0,0,1-.25.092,4.7,4.7,0,0,1-2.568-.085,1.44,1.44,0,0,1-.8-.566.834.834,0,0,1-.138-.571C629.333,1550.225,629.346,1550.206,629.641,1549.939Z" transform="translate(-579.055 -1505.84)" fill="#c5a572"/>
      <path id="Path_45467" data-name="Path 45467" d="M886.665,1578.514c0-.535,0-1.07,0-1.606a5.174,5.174,0,0,0-.18-1.453c-.116-.392-.008-.53.414-.559a1.934,1.934,0,0,1,.661.044,2.015,2.015,0,0,0,1.051-.05,4.882,4.882,0,0,1,.985-.14,1.633,1.633,0,0,1,1.442.823,2.507,2.507,0,0,1,.351.931,3.786,3.786,0,0,1-.152,1.977,2.128,2.128,0,0,1-2,1.5,5.435,5.435,0,0,0-.858.1.4.4,0,0,0-.342.492c.022.243.075.484.111.726a.707.707,0,0,1-.644.849,1.4,1.4,0,0,1-.2.025c-.725.019-1-.112-.811-.934a10.825,10.825,0,0,0,.174-2.329c0-.133,0-.267,0-.4Zm1.2-1.083c.017.367.009.681.051.987a.85.85,0,0,0,.9.8,1.063,1.063,0,0,0,1.147-.725,3.086,3.086,0,0,0,.013-2.215,1.05,1.05,0,0,0-1.155-.707.951.951,0,0,0-.893.918A9.346,9.346,0,0,0,887.865,1577.431Z" transform="translate(-817.719 -1534.18)" fill="#c5a572"/>
      <path id="Path_45468" data-name="Path 45468" d="M717.961,1544.38c.138-.017.29-.027.438-.056a5.922,5.922,0,0,1,.782-.169,1.369,1.369,0,0,1,1.553.989,4.555,4.555,0,0,1,.193,1.318c.021.512.056,1.023.1,1.533.02.221.092.436.12.657.056.436-.084.624-.522.679a2.127,2.127,0,0,1-.6-.011.456.456,0,0,1-.4-.462c-.008-.132.021-.266.025-.4.023-.645.053-1.291.06-1.936a2.213,2.213,0,0,0-.1-.591.916.916,0,0,0-1.568-.4,1.119,1.119,0,0,0-.345.844c0,.623.029,1.246.051,1.869.006.177.049.355.042.531a.55.55,0,0,1-.475.562,1.3,1.3,0,0,1-.329.049c-.71-.006-.893-.229-.749-.837a8.212,8.212,0,0,0,.141-1.862q.01-1.3.006-2.609a6.288,6.288,0,0,0-.139-1.727c-.088-.31.046-.467.359-.5a2.218,2.218,0,0,1,.4-.008.6.6,0,0,1,.639.559c.046.307.042.622.058.934A1.933,1.933,0,0,0,717.961,1544.38Z" transform="translate(-659.703 -1503.627)" fill="#c5a572"/>
      <path id="Path_45469" data-name="Path 45469" d="M137.03,1548.677a4.394,4.394,0,0,1,.331-1.885,2.843,2.843,0,0,1,2.373-1.818,8.414,8.414,0,0,1,1.731.018,1.474,1.474,0,0,1,.85.357.921.921,0,0,1,.314.961.374.374,0,0,1-.5.3c-.315-.108-.621-.244-.925-.38a2.434,2.434,0,0,0-.892-.255,1.521,1.521,0,0,0-1.584.986,2.882,2.882,0,0,0-.215.769,5.777,5.777,0,0,0,.1,2.124,1.889,1.889,0,0,0,2.449,1.438c.385-.105.755-.265,1.136-.39.244-.08.411-.048.487.081a.409.409,0,0,1-.033.5,1.977,1.977,0,0,1-.535.488,3.642,3.642,0,0,1-3.7-.067,2.609,2.609,0,0,1-1.1-1.384A4.681,4.681,0,0,1,137.03,1548.677Z" transform="translate(-122.107 -1506.504)" fill="#c5a572"/>
      <path id="Path_45470" data-name="Path 45470" d="M229.742,1576.051a9.765,9.765,0,0,1,.206-1.157,2.1,2.1,0,0,1,1.5-1.477,3.1,3.1,0,0,1,1.452-.078,2.287,2.287,0,0,1,1.9,2.05,3.647,3.647,0,0,1-.222,1.9,2.249,2.249,0,0,1-2.035,1.484,3.05,3.05,0,0,1-.993-.06,2.1,2.1,0,0,1-1.636-1.585C229.83,1576.788,229.8,1576.432,229.742,1576.051Zm3.762.183a2.96,2.96,0,0,0-.289-1.521,1.068,1.068,0,0,0-1.058-.555.979.979,0,0,0-.909.666,1.91,1.91,0,0,0-.138.444,4.136,4.136,0,0,0,0,1.46,2.554,2.554,0,0,0,.258.68.95.95,0,0,0,.815.5,1.093,1.093,0,0,0,1.189-.856A5.8,5.8,0,0,0,233.5,1576.234Z" transform="translate(-208.17 -1532.823)" fill="#c5a572"/>
      <path id="Path_45471" data-name="Path 45471" d="M800.241,1576c.048-.326.074-.637.14-.939a2.174,2.174,0,0,1,1.791-1.757,3.025,3.025,0,0,1,1.26-.009,2.3,2.3,0,0,1,1.866,2.084,3.729,3.729,0,0,1-.2,1.774,2.269,2.269,0,0,1-2.108,1.575,2.913,2.913,0,0,1-.928-.057,2.113,2.113,0,0,1-1.67-1.632C800.317,1576.692,800.29,1576.336,800.241,1576Zm3.759.142a3.054,3.054,0,0,0-.268-1.433,1.075,1.075,0,0,0-1.1-.6.992.992,0,0,0-.9.678,1.5,1.5,0,0,0-.108.315,4.18,4.18,0,0,0,.009,1.721,2.09,2.09,0,0,0,.234.549.955.955,0,0,0,.757.483,1.1,1.1,0,0,0,1.246-.863A6.239,6.239,0,0,0,804,1576.138Z" transform="translate(-737.715 -1532.769)" fill="#c5a572"/>
      <path id="Path_45472" data-name="Path 45472" d="M433.751,1578.071a.377.377,0,0,1,.122.438.693.693,0,0,1-.242.3,3.194,3.194,0,0,1-3.294-.008,2.059,2.059,0,0,1-.868-1.518,5.63,5.63,0,0,1,.007-1.461,2.394,2.394,0,0,1,2.918-1.959,1.947,1.947,0,0,1,1.71,2.11c-.019.45-.18.659-.623.72-.418.058-.841.076-1.262.106-.266.019-.534.016-.8.041a1.307,1.307,0,0,0-.382.1.363.363,0,0,0-.222.434,1,1,0,0,0,.728.793,1.938,1.938,0,0,0,1.117.062,6.1,6.1,0,0,1,.647-.157A2.7,2.7,0,0,1,433.751,1578.071Zm-2.92-2.095a5.179,5.179,0,0,0,1.792.01.356.356,0,0,0,.26-.347.91.91,0,0,0-.347-.76,1.126,1.126,0,0,0-.954-.169.926.926,0,0,0-.626.463A.779.779,0,0,0,430.831,1575.976Z" transform="translate(-393.518 -1533.318)" fill="#c5a572"/>
      <path id="Path_45473" data-name="Path 45473" d="M512,1578.209c.16.454.136.564-.154.756a3.253,3.253,0,0,1-3.242.006,2.143,2.143,0,0,1-.915-1.563,5.42,5.42,0,0,1-.03-1.064,2.4,2.4,0,0,1,2.978-2.331,1.912,1.912,0,0,1,1.694,2.053c-.01.518-.176.718-.707.781-.441.052-.887.066-1.33.1a7.277,7.277,0,0,0-.863.073c-.358.069-.464.306-.349.646a1.026,1.026,0,0,0,.768.673,2.027,2.027,0,0,0,1.12.022,4.528,4.528,0,0,1,.581-.145A2.865,2.865,0,0,1,512,1578.209Zm-2.1-2c.229-.01.429-.021.629-.028.555-.018.72-.282.477-.863a.83.83,0,0,0-.548-.458,1.131,1.131,0,0,0-1.459.894c-.053.286.049.435.329.453C509.53,1576.218,509.731,1576.208,509.9,1576.208Z" transform="translate(-466.125 -1533.459)" fill="#c5a572"/>
      <path id="Path_45474" data-name="Path 45474" d="M374.419,1548.044a2.125,2.125,0,0,1-.314-.032.6.6,0,0,1-.473-.636,1.9,1.9,0,0,1,.067-.392,7.955,7.955,0,0,0,.167-2.386,1.846,1.846,0,0,0-.343-.992c-.289-.419-.26-.538.022-.955a5.168,5.168,0,0,0,.375-.7c.133-.281.22-.586.375-.852a2.036,2.036,0,0,1,2.405-.761.453.453,0,0,1,.264.491.4.4,0,0,1-.34.361c-.219.031-.443.019-.664.031a.7.7,0,0,0-.738.764.6.6,0,0,0,.344.6c.139.069.29.116.424.194a1.209,1.209,0,0,1,.307.245.319.319,0,0,1-.059.47.805.805,0,0,1-.232.125,1.029,1.029,0,0,0-.72.876,5.277,5.277,0,0,0-.024,2.053c.036.2.1.389.133.585a.658.658,0,0,1-.625.887C374.659,1548.039,374.547,1548.036,374.419,1548.044Z" transform="translate(-341.44 -1502.111)" fill="#c5a572"/>
      <path id="Path_45475" data-name="Path 45475" d="M315.906,1548.134a1,1,0,0,1-.256-.041.549.549,0,0,1-.4-.552,2.008,2.008,0,0,1,.055-.463,7.72,7.72,0,0,0,.155-2.39,1.611,1.611,0,0,0-.344-.99,1.089,1.089,0,0,1-.076-.11.541.541,0,0,1,.039-.733,2.543,2.543,0,0,0,.526-.994c.036-.105.075-.21.119-.312a1.946,1.946,0,0,1,2.346-1.172,1.219,1.219,0,0,1,.309.116.425.425,0,0,1,.2.458.4.4,0,0,1-.3.331,2.033,2.033,0,0,1-.462.047,3.172,3.172,0,0,0-.465.023.633.633,0,0,0-.5.557.641.641,0,0,0,.281.755c.153.089.325.146.481.23a.965.965,0,0,1,.263.2.366.366,0,0,1-.068.53.4.4,0,0,1-.114.07c-.629.163-.793.653-.863,1.214a4.979,4.979,0,0,0,.11,2.054,1.872,1.872,0,0,1,.049.263c.084.586-.107.842-.682.908C316.223,1548.142,316.133,1548.134,315.906,1548.134Z" transform="translate(-287.228 -1502.214)" fill="#c5a572"/>
      <path id="Path_45476" data-name="Path 45476" d="M836.392,1093.63c0,.037,0,.015,0-.007a3.787,3.787,0,0,1,2.493-3.087,2.214,2.214,0,0,1,.593-.06.781.781,0,0,1,.844.828,2.478,2.478,0,0,1-.156.908,4.318,4.318,0,0,1-1.792,2.164,2.653,2.653,0,0,1-.8.31C836.814,1094.857,836.381,1094.479,836.392,1093.63Z" transform="translate(-771.27 -1084.669)" fill="#c5a572"/>
    </g>
  </g>
</svg>
