<svg xmlns="http://www.w3.org/2000/svg" width="64.598" height="81.873" viewBox="0 0 64.598 81.873">
  <g id="cheers" transform="translate(-54.016)">
    <path id="Path_73841" data-name="Path 73841" d="M263.687,123.327a10.981,10.981,0,0,0,12.484,8.96l4.273,15.946-3.934,1.054a3.807,3.807,0,1,0,1.971,7.354l10.185-2.729a3.807,3.807,0,1,0-1.971-7.354l-3.934,1.054-4.273-15.946a10.979,10.979,0,0,0,6.331-14l-.481-1.315a1.2,1.2,0,0,0-2.253.823l.481,1.315a8.583,8.583,0,1,1-16.517,4.426l-1.1-6.295a5.306,5.306,0,0,1,1.54-.217,7.788,7.788,0,0,0,6.34-3.45,5.4,5.4,0,0,1,4.47-2.432,7.437,7.437,0,0,0,2.229-.346l.763,2.087a1.2,1.2,0,0,0,2.253-.823L277.159,96.7a2.784,2.784,0,0,0-3.353-1.742l-11.935,3.2a2.784,2.784,0,0,0-2.032,3.186Zm-1.194-22.85,11.935-3.2a.4.4,0,0,1,.479.249l3.8,10.39a5.4,5.4,0,0,1-1.5.2,7.788,7.788,0,0,0-6.341,3.45A5.4,5.4,0,0,1,266.4,114a7.931,7.931,0,0,0-1.865.237L262.2,100.932A.4.4,0,0,1,262.493,100.477ZM288.9,150.939a1.4,1.4,0,0,1-.855.656h0l-10.185,2.729a1.408,1.408,0,0,1-.729-2.721l10.185-2.729a1.418,1.418,0,0,1,.367-.049,1.409,1.409,0,0,1,1.217,2.113Z" transform="translate(-172.874 -79.695)" fill="#c5a572"/>
    <path id="Path_73842" data-name="Path 73842" d="M222.161,13.539a2.23,2.23,0,0,0,2.192-2.6L223.986,8.8l1.55-1.511a2.226,2.226,0,0,0-1.233-3.8l-2.142-.311L221.2,1.241a2.226,2.226,0,0,0-3.992,0l-.958,1.941-2.142.311a2.226,2.226,0,0,0-1.234,3.8l1.55,1.511-.366,2.134a2.226,2.226,0,0,0,3.23,2.346l1.916-1.007,1.916,1.007A2.226,2.226,0,0,0,222.161,13.539Zm-3.99-3.431-1.686.887.322-1.878a2.226,2.226,0,0,0-.64-1.97L214.8,5.817l1.886-.274a2.226,2.226,0,0,0,1.675-1.218l.843-1.709.843,1.708a2.226,2.226,0,0,0,1.676,1.218l1.886.274-1.365,1.33a2.225,2.225,0,0,0-.64,1.97l.322,1.878-1.686-.887a2.224,2.224,0,0,0-2.072,0Z" transform="translate(-132.892)" fill="#c5a572"/>
    <path id="Path_73843" data-name="Path 73843" d="M177.455,45.821a1.2,1.2,0,1,0,1.956-1.388l-3.845-5.417a1.2,1.2,0,0,0-1.956,1.388Z" transform="translate(-100.284 -32.352)" fill="#c5a572"/>
    <path id="Path_73844" data-name="Path 73844" d="M135.026,88.544l6.947,2a1.2,1.2,0,0,0,.663-2.305l-6.947-2a1.2,1.2,0,0,0-.663,2.305Z" transform="translate(-67.326 -72.408)" fill="#c5a572"/>
    <path id="Path_73845" data-name="Path 73845" d="M304.728,52.027a1.2,1.2,0,0,0,.758-.271l5.865-4.792a1.2,1.2,0,0,0-1.518-1.858L303.969,49.9a1.2,1.2,0,0,0,.76,2.128Z" transform="translate(-209.613 -37.666)" fill="#c5a572"/>
    <path id="Path_73846" data-name="Path 73846" d="M60.685,147.661a10.979,10.979,0,0,0,6.331,14l-4.273,15.946-3.934-1.054a3.807,3.807,0,0,0-1.971,7.354l10.185,2.729A3.807,3.807,0,1,0,69,179.284l-3.934-1.054,4.272-15.944a10.87,10.87,0,0,0,5.2-.455,1.2,1.2,0,1,0-.775-2.27,8.585,8.585,0,0,1-10.823-11.075l2.193-6a5.3,5.3,0,0,1,1.443.582,7.788,7.788,0,0,0,7.216.182,5.4,5.4,0,0,1,5.088.129,7.452,7.452,0,0,0,2.1.815l-1.526,8.72a8.571,8.571,0,0,1-1.894,4.059,1.2,1.2,0,0,0,1.831,1.55,10.973,10.973,0,0,0,2.426-5.195l3.847-21.981a2.784,2.784,0,0,0-2.032-3.186l-11.935-3.2a2.783,2.783,0,0,0-3.353,1.742l-1.467,4.016a1.2,1.2,0,1,0,2.253.823l1.467-4.016a.4.4,0,0,1,.479-.249l11.935,3.2a.4.4,0,0,1,.29.455l-1.907,10.9a5.4,5.4,0,0,1-1.4-.572,7.789,7.789,0,0,0-7.216-.182,5.4,5.4,0,0,1-5.087-.129,7.918,7.918,0,0,0-1.733-.727l1.376-3.765a1.2,1.2,0,0,0-2.253-.823ZM68.374,181.6a1.408,1.408,0,1,1-.729,2.721L57.46,181.592a1.408,1.408,0,1,1,.729-2.721Z" transform="translate(0 -104.895)" fill="#c5a572"/>
  </g>
</svg>
