<svg id="happiness" xmlns="http://www.w3.org/2000/svg" width="57.922" height="57.922" viewBox="0 0 57.922 57.922">
  <path id="Path_73851" data-name="Path 73851" d="M28.961,0A28.961,28.961,0,1,0,57.922,28.961,28.994,28.994,0,0,0,28.961,0Zm0,54.791a25.825,25.825,0,1,1,25.83-25.83A25.748,25.748,0,0,1,28.961,54.791Z" fill="#c5a572"/>
  <path id="Path_73852" data-name="Path 73852" d="M72,101.531a3.007,3.007,0,0,1,3.052,3.052h3.131a6.183,6.183,0,1,0-12.366,0h3.131A3.007,3.007,0,0,1,72,101.531Z" transform="translate(-52.934 -79.145)" fill="#c5a572"/>
  <path id="Path_73853" data-name="Path 73853" d="M173.17,101.531a3.007,3.007,0,0,1,3.052,3.052h3.131a6.183,6.183,0,1,0-12.366,0h3.131A3.007,3.007,0,0,1,173.17,101.531Z" transform="translate(-134.31 -79.145)" fill="#c5a572"/>
  <path id="Path_73854" data-name="Path 73854" d="M85.752,189.138a18.177,18.177,0,0,0,15.186-8.241l-2.63-1.7a14.874,14.874,0,0,1-25,0l-2.63,1.7a18.18,18.18,0,0,0,13.047,8.124A17.653,17.653,0,0,0,85.752,189.138Z" transform="translate(-56.847 -144.132)" fill="#c5a572"/>
</svg>
