<svg xmlns="http://www.w3.org/2000/svg" width="94" height="94" viewBox="0 0 94 94">
  <g id="Group_18728" data-name="Group 18728" transform="translate(-316 -2102)">
    <circle id="Ellipse_11561" data-name="Ellipse 11561" cx="47" cy="47" r="47" transform="translate(316 2102)" fill="#2d3232"/>
    <g id="restaurant_1_" data-name="restaurant (1)" transform="translate(338.984 2124.984)">
      <g id="Group_17904" data-name="Group 17904" transform="translate(10.581 10.581)">
        <g id="Group_17903" data-name="Group 17903">
          <path id="Path_45512" data-name="Path 45512" d="M127.18,114a13.18,13.18,0,1,0,13.18,13.18A13.195,13.195,0,0,0,127.18,114Zm0,24.5A11.323,11.323,0,1,1,138.5,127.18,11.336,11.336,0,0,1,127.18,138.5Z" transform="translate(-114 -114)" fill="#c5a572"/>
        </g>
      </g>
      <g id="Group_17906" data-name="Group 17906" transform="translate(38.797 0)">
        <g id="Group_17905" data-name="Group 17905">
          <path id="Path_45513" data-name="Path 45513" d="M426.232.108a.929.929,0,0,0-.955.051A16.513,16.513,0,0,0,418,13.858V25.9a4.8,4.8,0,0,0,1.416,3.42l1.739,1.739V44.737a2.784,2.784,0,0,0,5.569,0V.928A.928.928,0,0,0,426.232.108Zm-1.364,44.629a.928.928,0,1,1-1.856,0V30.675a.928.928,0,0,0-.272-.656l-2.011-2.011a2.96,2.96,0,0,1-.873-2.107V13.858a14.656,14.656,0,0,1,5.012-11.046Z" transform="translate(-418 0)" fill="#c5a572"/>
        </g>
      </g>
      <g id="Group_17908" data-name="Group 17908" transform="translate(15.229 15.836)">
        <g id="Group_17907" data-name="Group 17907">
          <path id="Path_45514" data-name="Path 45514" d="M170.478,171.181a.928.928,0,0,0-1.218-.489,8.524,8.524,0,0,0-5.185,7.85.928.928,0,1,0,1.856,0,6.67,6.67,0,0,1,4.057-6.143A.928.928,0,0,0,170.478,171.181Z" transform="translate(-164.075 -170.617)" fill="#c5a572"/>
        </g>
      </g>
      <g id="Group_17910" data-name="Group 17910" transform="translate(22.792 15.229)">
        <g id="Group_17909" data-name="Group 17909">
          <path id="Path_45515" data-name="Path 45515" d="M246.531,164.075h-.047a.928.928,0,0,0,.006,1.856h.041a.928.928,0,1,0,0-1.856Z" transform="translate(-245.562 -164.075)" fill="#c5a572"/>
        </g>
      </g>
      <g id="Group_17912" data-name="Group 17912" transform="translate(15.216 6.025)">
        <g id="Group_17911" data-name="Group 17911">
          <path id="Path_45516" data-name="Path 45516" d="M185.348,70.443a17.748,17.748,0,0,0-20.9-3.607.928.928,0,1,0,.842,1.654A15.891,15.891,0,0,1,184,71.72a.928.928,0,0,0,1.346-1.278Z" transform="translate(-163.937 -64.914)" fill="#c5a572"/>
        </g>
      </g>
      <g id="Group_17914" data-name="Group 17914" transform="translate(13.744 33.249)">
        <g id="Group_17913" data-name="Group 17913">
          <path id="Path_45517" data-name="Path 45517" d="M171.865,358.424a.928.928,0,0,0-1.3.152,15.885,15.885,0,0,1-21.049,3.52.928.928,0,1,0-1.005,1.561,17.742,17.742,0,0,0,23.511-3.93A.928.928,0,0,0,171.865,358.424Z" transform="translate(-148.081 -358.224)" fill="#c5a572"/>
        </g>
      </g>
      <g id="Group_17916" data-name="Group 17916" transform="translate(10.952 34.713)">
        <g id="Group_17915" data-name="Group 17915">
          <path id="Path_45518" data-name="Path 45518" d="M119.667,374.364l-.014-.016-.015-.018a.928.928,0,1,0-1.42,1.2l.009.011h0l.031.037a.928.928,0,1,0,1.408-1.209Z" transform="translate(-118 -374)" fill="#c5a572"/>
        </g>
      </g>
      <g id="Group_17918" data-name="Group 17918" transform="translate(0 0)">
        <g id="Group_17917" data-name="Group 17917">
          <path id="Path_45519" data-name="Path 45519" d="M11.509,0a.928.928,0,0,0-.928.928V10.952H8.91c0-.005,0-.01,0-.016V.928a.928.928,0,0,0-1.856,0V10.937c0,.005,0,.01,0,.016H5.383c0-.005,0-.01,0-.016V.928a.928.928,0,0,0-1.856,0V10.937c0,.005,0,.01,0,.016H1.856V.928A.928.928,0,0,0,0,.928V12.252a5.716,5.716,0,0,0,3.434,5.22V44.737a2.784,2.784,0,0,0,5.569,0V17.471a5.716,5.716,0,0,0,3.434-5.22V.928A.928.928,0,0,0,11.509,0ZM7.817,15.929a.928.928,0,0,0-.67.892V44.737a.928.928,0,1,1-1.856,0V16.821a.928.928,0,0,0-.67-.892A3.848,3.848,0,0,1,1.9,12.809h8.641A3.848,3.848,0,0,1,7.817,15.929Z" fill="#c5a572"/>
        </g>
      </g>
    </g>
  </g>
</svg>
