<svg xmlns="http://www.w3.org/2000/svg" width="70.005" height="58.424" viewBox="0 0 70.005 58.424">
  <g id="outline" transform="translate(-16.25 -55.746)">
    <path id="Path_73847" data-name="Path 73847" d="M77.4,86.119H75.08a1.158,1.158,0,0,0-1.158-1.158H51.911V75.693a1.158,1.158,0,0,0-1.158-1.158h-.3l.244-4.634h1.218a1.158,1.158,0,0,0,1.158-1.158V64.108a1.158,1.158,0,0,0-1.158-1.158h-1.6l-2-3.993a1.158,1.158,0,0,0-.931-.636L21.9,56a1.157,1.157,0,0,0-1.2.787L18.64,62.95H17.158A1.158,1.158,0,0,0,16,64.108v4.634A1.158,1.158,0,0,0,17.158,69.9h1.218l.244,4.634h-.3a1.158,1.158,0,0,0-1.158,1.158V98.861a1.158,1.158,0,0,0,1.158,1.158h1.645l.674,12.8a1.158,1.158,0,0,0,1.157,1.1H75.08a6.089,6.089,0,0,0,6.082-6.082v-2.027A1.158,1.158,0,0,0,80,104.653H71.87a18.508,18.508,0,0,0,1.344-2.317H77.4a8.109,8.109,0,1,0,0-16.218ZM22.6,58.395,46.53,60.57l1.19,2.38H21.083Zm-4.284,9.189V65.267H50.753v2.317ZM48.373,69.9l-.244,4.634H20.94L20.7,69.9Zm-28.9,27.8V76.851H49.594V84.96H42.307A8.112,8.112,0,1,0,38.014,94.6a18.555,18.555,0,0,0,.324,3.1ZM39.844,84.96h-.676a1.158,1.158,0,0,0-1.158,1.158v5.792a5.792,5.792,0,1,1,1.834-6.951ZM22.891,111.6l-.61-11.584H38.937a18.485,18.485,0,0,0,2.283,4.634H33.087a1.158,1.158,0,0,0-1.158,1.158v2.027a6.05,6.05,0,0,0,1.311,3.765Zm55.953-4.634v.869A3.769,3.769,0,0,1,75.08,111.6H38.01a3.769,3.769,0,0,1-3.765-3.765v-.869ZM72.763,94.228a16.188,16.188,0,0,1-3.8,10.426H44.123a16.188,16.188,0,0,1-3.8-10.426V87.277H72.763Zm2.317,0V93.069h1.158a1.158,1.158,0,1,1,0,2.317h-1.2C75.067,95,75.08,94.615,75.08,94.228ZM77.4,100.02H74.153a18.5,18.5,0,0,0,.6-2.317h1.487a3.475,3.475,0,1,0,0-6.951H75.08V88.435H77.4a5.792,5.792,0,0,1,0,11.584Z" transform="translate(0.5 0)" fill="#c5a572" stroke="#c5a572" stroke-width="0.5"/>
    <path id="Path_73848" data-name="Path 73848" d="M279.475,161.158a1.158,1.158,0,0,0-2.317,0,2.44,2.44,0,0,1-.427,1.453,4.991,4.991,0,0,0,0,5.2,2.438,2.438,0,0,1,.427,1.452,1.158,1.158,0,1,0,2.317,0,4.666,4.666,0,0,0-.732-2.6,2.686,2.686,0,0,1,0-2.905A4.666,4.666,0,0,0,279.475,161.158Z" transform="translate(-222.351 -88.941)" fill="#c5a572" stroke="#c5a572" stroke-width="0.5"/>
    <path id="Path_73849" data-name="Path 73849" d="M327.475,161.158a1.158,1.158,0,1,0-2.317,0,2.44,2.44,0,0,1-.427,1.453,4.991,4.991,0,0,0,0,5.2,2.438,2.438,0,0,1,.427,1.452,1.158,1.158,0,1,0,2.317,0,4.667,4.667,0,0,0-.732-2.6,2.686,2.686,0,0,1,0-2.905A4.666,4.666,0,0,0,327.475,161.158Z" transform="translate(-263.401 -88.941)" fill="#c5a572" stroke="#c5a572" stroke-width="0.5"/>
    <path id="Path_73850" data-name="Path 73850" d="M375.475,161.158a1.158,1.158,0,0,0-2.317,0,2.44,2.44,0,0,1-.427,1.453,4.991,4.991,0,0,0,0,5.2,2.438,2.438,0,0,1,.427,1.452,1.158,1.158,0,1,0,2.317,0,4.666,4.666,0,0,0-.732-2.6,2.686,2.686,0,0,1,0-2.905A4.666,4.666,0,0,0,375.475,161.158Z" transform="translate(-304.45 -88.941)" fill="#c5a572" stroke="#c5a572" stroke-width="0.5"/>
  </g>
</svg>
